M48
; DRILL file {KiCad (5.1.5)-3} date 11/10/2020 12:23:32 PM
; FORMAT={-:-/ absolute / inch / decimal}
; #@! TF.CreationDate,2020-11-10T12:23:32+03:00
; #@! TF.GenerationSoftware,Kicad,Pcbnew,(5.1.5)-3
; #@! TF.FileFunction,Plated,1,2,PTH
FMAT,2
INCH
T1C0.0157
T2C0.0394
T3C0.0433
%
G90
G05
T1
X2.071Y-3.271
T2
X2.103Y-3.488
X2.203Y-3.488
X2.303Y-3.488
X2.403Y-3.488
X1.656Y-2.931
X1.656Y-3.031
X1.756Y-2.931
X1.756Y-3.031
X1.856Y-2.931
X1.856Y-3.031
X1.956Y-2.931
X1.956Y-3.031
X2.056Y-2.931
X2.056Y-3.031
X2.156Y-2.931
X2.156Y-3.031
X2.256Y-2.931
X2.256Y-3.031
X2.356Y-2.931
X2.356Y-3.031
T3
X1.7021Y-3.3238
X1.7021Y-3.501
X1.958Y-3.3238
X1.958Y-3.501
T0
M30
