G04 #@! TF.GenerationSoftware,KiCad,Pcbnew,(5.1.5)-3*
G04 #@! TF.CreationDate,2020-11-10T12:23:10+03:00*
G04 #@! TF.ProjectId,rasphat_proj2,72617370-6861-4745-9f70-726f6a322e6b,rev?*
G04 #@! TF.SameCoordinates,Original*
G04 #@! TF.FileFunction,Soldermask,Top*
G04 #@! TF.FilePolarity,Negative*
%FSLAX46Y46*%
G04 Gerber Fmt 4.6, Leading zero omitted, Abs format (unit mm)*
G04 Created by KiCad (PCBNEW (5.1.5)-3) date 2020-11-10 12:23:10*
%MOMM*%
%LPD*%
G04 APERTURE LIST*
%ADD10C,0.100000*%
G04 APERTURE END LIST*
D10*
G36*
X50039764Y-87914789D02*
G01*
X50231033Y-87994015D01*
X50231035Y-87994016D01*
X50271189Y-88020846D01*
X50403173Y-88109035D01*
X50549565Y-88255427D01*
X50664585Y-88427567D01*
X50743811Y-88618836D01*
X50784200Y-88821884D01*
X50784200Y-89028916D01*
X50743811Y-89231964D01*
X50676836Y-89393656D01*
X50664584Y-89423235D01*
X50549565Y-89595373D01*
X50403173Y-89741765D01*
X50231035Y-89856784D01*
X50231034Y-89856785D01*
X50231033Y-89856785D01*
X50039764Y-89936011D01*
X49836716Y-89976400D01*
X49629684Y-89976400D01*
X49426636Y-89936011D01*
X49235367Y-89856785D01*
X49235366Y-89856785D01*
X49235365Y-89856784D01*
X49063227Y-89741765D01*
X48916835Y-89595373D01*
X48801816Y-89423235D01*
X48789564Y-89393656D01*
X48722589Y-89231964D01*
X48682200Y-89028916D01*
X48682200Y-88821884D01*
X48722589Y-88618836D01*
X48801815Y-88427567D01*
X48916835Y-88255427D01*
X49063227Y-88109035D01*
X49195211Y-88020846D01*
X49235365Y-87994016D01*
X49235367Y-87994015D01*
X49426636Y-87914789D01*
X49629684Y-87874400D01*
X49836716Y-87874400D01*
X50039764Y-87914789D01*
G37*
G36*
X43539764Y-87914789D02*
G01*
X43731033Y-87994015D01*
X43731035Y-87994016D01*
X43771189Y-88020846D01*
X43903173Y-88109035D01*
X44049565Y-88255427D01*
X44164585Y-88427567D01*
X44243811Y-88618836D01*
X44284200Y-88821884D01*
X44284200Y-89028916D01*
X44243811Y-89231964D01*
X44176836Y-89393656D01*
X44164584Y-89423235D01*
X44049565Y-89595373D01*
X43903173Y-89741765D01*
X43731035Y-89856784D01*
X43731034Y-89856785D01*
X43731033Y-89856785D01*
X43539764Y-89936011D01*
X43336716Y-89976400D01*
X43129684Y-89976400D01*
X42926636Y-89936011D01*
X42735367Y-89856785D01*
X42735366Y-89856785D01*
X42735365Y-89856784D01*
X42563227Y-89741765D01*
X42416835Y-89595373D01*
X42301816Y-89423235D01*
X42289564Y-89393656D01*
X42222589Y-89231964D01*
X42182200Y-89028916D01*
X42182200Y-88821884D01*
X42222589Y-88618836D01*
X42301815Y-88427567D01*
X42416835Y-88255427D01*
X42563227Y-88109035D01*
X42695211Y-88020846D01*
X42735365Y-87994016D01*
X42735367Y-87994015D01*
X42926636Y-87914789D01*
X43129684Y-87874400D01*
X43336716Y-87874400D01*
X43539764Y-87914789D01*
G37*
G36*
X54317200Y-89496200D02*
G01*
X52515200Y-89496200D01*
X52515200Y-87694200D01*
X54317200Y-87694200D01*
X54317200Y-89496200D01*
G37*
G36*
X58609712Y-87699127D02*
G01*
X58759012Y-87728824D01*
X58922984Y-87796744D01*
X59070554Y-87895347D01*
X59196053Y-88020846D01*
X59294656Y-88168416D01*
X59362576Y-88332388D01*
X59397200Y-88506459D01*
X59397200Y-88683941D01*
X59362576Y-88858012D01*
X59294656Y-89021984D01*
X59196053Y-89169554D01*
X59070554Y-89295053D01*
X58922984Y-89393656D01*
X58759012Y-89461576D01*
X58609712Y-89491273D01*
X58584942Y-89496200D01*
X58407458Y-89496200D01*
X58382688Y-89491273D01*
X58233388Y-89461576D01*
X58069416Y-89393656D01*
X57921846Y-89295053D01*
X57796347Y-89169554D01*
X57697744Y-89021984D01*
X57629824Y-88858012D01*
X57595200Y-88683941D01*
X57595200Y-88506459D01*
X57629824Y-88332388D01*
X57697744Y-88168416D01*
X57796347Y-88020846D01*
X57921846Y-87895347D01*
X58069416Y-87796744D01*
X58233388Y-87728824D01*
X58382688Y-87699127D01*
X58407458Y-87694200D01*
X58584942Y-87694200D01*
X58609712Y-87699127D01*
G37*
G36*
X61149712Y-87699127D02*
G01*
X61299012Y-87728824D01*
X61462984Y-87796744D01*
X61610554Y-87895347D01*
X61736053Y-88020846D01*
X61834656Y-88168416D01*
X61902576Y-88332388D01*
X61937200Y-88506459D01*
X61937200Y-88683941D01*
X61902576Y-88858012D01*
X61834656Y-89021984D01*
X61736053Y-89169554D01*
X61610554Y-89295053D01*
X61462984Y-89393656D01*
X61299012Y-89461576D01*
X61149712Y-89491273D01*
X61124942Y-89496200D01*
X60947458Y-89496200D01*
X60922688Y-89491273D01*
X60773388Y-89461576D01*
X60609416Y-89393656D01*
X60461846Y-89295053D01*
X60336347Y-89169554D01*
X60237744Y-89021984D01*
X60169824Y-88858012D01*
X60135200Y-88683941D01*
X60135200Y-88506459D01*
X60169824Y-88332388D01*
X60237744Y-88168416D01*
X60336347Y-88020846D01*
X60461846Y-87895347D01*
X60609416Y-87796744D01*
X60773388Y-87728824D01*
X60922688Y-87699127D01*
X60947458Y-87694200D01*
X61124942Y-87694200D01*
X61149712Y-87699127D01*
G37*
G36*
X56069712Y-87699127D02*
G01*
X56219012Y-87728824D01*
X56382984Y-87796744D01*
X56530554Y-87895347D01*
X56656053Y-88020846D01*
X56754656Y-88168416D01*
X56822576Y-88332388D01*
X56857200Y-88506459D01*
X56857200Y-88683941D01*
X56822576Y-88858012D01*
X56754656Y-89021984D01*
X56656053Y-89169554D01*
X56530554Y-89295053D01*
X56382984Y-89393656D01*
X56219012Y-89461576D01*
X56069712Y-89491273D01*
X56044942Y-89496200D01*
X55867458Y-89496200D01*
X55842688Y-89491273D01*
X55693388Y-89461576D01*
X55529416Y-89393656D01*
X55381846Y-89295053D01*
X55256347Y-89169554D01*
X55157744Y-89021984D01*
X55089824Y-88858012D01*
X55055200Y-88683941D01*
X55055200Y-88506459D01*
X55089824Y-88332388D01*
X55157744Y-88168416D01*
X55256347Y-88020846D01*
X55381846Y-87895347D01*
X55529416Y-87796744D01*
X55693388Y-87728824D01*
X55842688Y-87699127D01*
X55867458Y-87694200D01*
X56044942Y-87694200D01*
X56069712Y-87699127D01*
G37*
G36*
X61077074Y-84038665D02*
G01*
X61114767Y-84050099D01*
X61149503Y-84068666D01*
X61179948Y-84093652D01*
X61204934Y-84124097D01*
X61223501Y-84158833D01*
X61234935Y-84196526D01*
X61239400Y-84241861D01*
X61239400Y-85328539D01*
X61234935Y-85373874D01*
X61223501Y-85411567D01*
X61204934Y-85446303D01*
X61179948Y-85476748D01*
X61149503Y-85501734D01*
X61114767Y-85520301D01*
X61077074Y-85531735D01*
X61031739Y-85536200D01*
X60195061Y-85536200D01*
X60149726Y-85531735D01*
X60112033Y-85520301D01*
X60077297Y-85501734D01*
X60046852Y-85476748D01*
X60021866Y-85446303D01*
X60003299Y-85411567D01*
X59991865Y-85373874D01*
X59987400Y-85328539D01*
X59987400Y-84241861D01*
X59991865Y-84196526D01*
X60003299Y-84158833D01*
X60021866Y-84124097D01*
X60046852Y-84093652D01*
X60077297Y-84068666D01*
X60112033Y-84050099D01*
X60149726Y-84038665D01*
X60195061Y-84034200D01*
X61031739Y-84034200D01*
X61077074Y-84038665D01*
G37*
G36*
X59027074Y-84038665D02*
G01*
X59064767Y-84050099D01*
X59099503Y-84068666D01*
X59129948Y-84093652D01*
X59154934Y-84124097D01*
X59173501Y-84158833D01*
X59184935Y-84196526D01*
X59189400Y-84241861D01*
X59189400Y-85328539D01*
X59184935Y-85373874D01*
X59173501Y-85411567D01*
X59154934Y-85446303D01*
X59129948Y-85476748D01*
X59099503Y-85501734D01*
X59064767Y-85520301D01*
X59027074Y-85531735D01*
X58981739Y-85536200D01*
X58145061Y-85536200D01*
X58099726Y-85531735D01*
X58062033Y-85520301D01*
X58027297Y-85501734D01*
X57996852Y-85476748D01*
X57971866Y-85446303D01*
X57953299Y-85411567D01*
X57941865Y-85373874D01*
X57937400Y-85328539D01*
X57937400Y-84241861D01*
X57941865Y-84196526D01*
X57953299Y-84158833D01*
X57971866Y-84124097D01*
X57996852Y-84093652D01*
X58027297Y-84068666D01*
X58062033Y-84050099D01*
X58099726Y-84038665D01*
X58145061Y-84034200D01*
X58981739Y-84034200D01*
X59027074Y-84038665D01*
G37*
G36*
X43539764Y-83414789D02*
G01*
X43731033Y-83494015D01*
X43731035Y-83494016D01*
X43903173Y-83609035D01*
X44049565Y-83755427D01*
X44164585Y-83927567D01*
X44243811Y-84118836D01*
X44284200Y-84321884D01*
X44284200Y-84528916D01*
X44243811Y-84731964D01*
X44164585Y-84923233D01*
X44164584Y-84923235D01*
X44049565Y-85095373D01*
X43903173Y-85241765D01*
X43731035Y-85356784D01*
X43731034Y-85356785D01*
X43731033Y-85356785D01*
X43539764Y-85436011D01*
X43336716Y-85476400D01*
X43129684Y-85476400D01*
X42926636Y-85436011D01*
X42735367Y-85356785D01*
X42735366Y-85356785D01*
X42735365Y-85356784D01*
X42563227Y-85241765D01*
X42416835Y-85095373D01*
X42301816Y-84923235D01*
X42301815Y-84923233D01*
X42222589Y-84731964D01*
X42182200Y-84528916D01*
X42182200Y-84321884D01*
X42222589Y-84118836D01*
X42301815Y-83927567D01*
X42416835Y-83755427D01*
X42563227Y-83609035D01*
X42735365Y-83494016D01*
X42735367Y-83494015D01*
X42926636Y-83414789D01*
X43129684Y-83374400D01*
X43336716Y-83374400D01*
X43539764Y-83414789D01*
G37*
G36*
X50039764Y-83414789D02*
G01*
X50231033Y-83494015D01*
X50231035Y-83494016D01*
X50403173Y-83609035D01*
X50549565Y-83755427D01*
X50664585Y-83927567D01*
X50743811Y-84118836D01*
X50784200Y-84321884D01*
X50784200Y-84528916D01*
X50743811Y-84731964D01*
X50664585Y-84923233D01*
X50664584Y-84923235D01*
X50549565Y-85095373D01*
X50403173Y-85241765D01*
X50231035Y-85356784D01*
X50231034Y-85356785D01*
X50231033Y-85356785D01*
X50039764Y-85436011D01*
X49836716Y-85476400D01*
X49629684Y-85476400D01*
X49426636Y-85436011D01*
X49235367Y-85356785D01*
X49235366Y-85356785D01*
X49235365Y-85356784D01*
X49063227Y-85241765D01*
X48916835Y-85095373D01*
X48801816Y-84923235D01*
X48801815Y-84923233D01*
X48722589Y-84731964D01*
X48682200Y-84528916D01*
X48682200Y-84321884D01*
X48722589Y-84118836D01*
X48801815Y-83927567D01*
X48916835Y-83755427D01*
X49063227Y-83609035D01*
X49235365Y-83494016D01*
X49235367Y-83494015D01*
X49426636Y-83414789D01*
X49629684Y-83374400D01*
X49836716Y-83374400D01*
X50039764Y-83414789D01*
G37*
G36*
X56428874Y-83962465D02*
G01*
X56466567Y-83973899D01*
X56501303Y-83992466D01*
X56531748Y-84017452D01*
X56556734Y-84047897D01*
X56575301Y-84082633D01*
X56586735Y-84120326D01*
X56591200Y-84165661D01*
X56591200Y-85252339D01*
X56586735Y-85297674D01*
X56575301Y-85335367D01*
X56556734Y-85370103D01*
X56531748Y-85400548D01*
X56501303Y-85425534D01*
X56466567Y-85444101D01*
X56428874Y-85455535D01*
X56383539Y-85460000D01*
X55546861Y-85460000D01*
X55501526Y-85455535D01*
X55463833Y-85444101D01*
X55429097Y-85425534D01*
X55398652Y-85400548D01*
X55373666Y-85370103D01*
X55355099Y-85335367D01*
X55343665Y-85297674D01*
X55339200Y-85252339D01*
X55339200Y-84165661D01*
X55343665Y-84120326D01*
X55355099Y-84082633D01*
X55373666Y-84047897D01*
X55398652Y-84017452D01*
X55429097Y-83992466D01*
X55463833Y-83973899D01*
X55501526Y-83962465D01*
X55546861Y-83958000D01*
X56383539Y-83958000D01*
X56428874Y-83962465D01*
G37*
G36*
X54378874Y-83962465D02*
G01*
X54416567Y-83973899D01*
X54451303Y-83992466D01*
X54481748Y-84017452D01*
X54506734Y-84047897D01*
X54525301Y-84082633D01*
X54536735Y-84120326D01*
X54541200Y-84165661D01*
X54541200Y-85252339D01*
X54536735Y-85297674D01*
X54525301Y-85335367D01*
X54506734Y-85370103D01*
X54481748Y-85400548D01*
X54451303Y-85425534D01*
X54416567Y-85444101D01*
X54378874Y-85455535D01*
X54333539Y-85460000D01*
X53496861Y-85460000D01*
X53451526Y-85455535D01*
X53413833Y-85444101D01*
X53379097Y-85425534D01*
X53348652Y-85400548D01*
X53323666Y-85370103D01*
X53305099Y-85335367D01*
X53293665Y-85297674D01*
X53289200Y-85252339D01*
X53289200Y-84165661D01*
X53293665Y-84120326D01*
X53305099Y-84082633D01*
X53323666Y-84047897D01*
X53348652Y-84017452D01*
X53379097Y-83992466D01*
X53413833Y-83973899D01*
X53451526Y-83962465D01*
X53496861Y-83958000D01*
X54333539Y-83958000D01*
X54378874Y-83962465D01*
G37*
G36*
X61077074Y-79968865D02*
G01*
X61114767Y-79980299D01*
X61149503Y-79998866D01*
X61179948Y-80023852D01*
X61204934Y-80054297D01*
X61223501Y-80089033D01*
X61234935Y-80126726D01*
X61239400Y-80172061D01*
X61239400Y-81258739D01*
X61234935Y-81304074D01*
X61223501Y-81341767D01*
X61204934Y-81376503D01*
X61179948Y-81406948D01*
X61149503Y-81431934D01*
X61114767Y-81450501D01*
X61077074Y-81461935D01*
X61031739Y-81466400D01*
X60195061Y-81466400D01*
X60149726Y-81461935D01*
X60112033Y-81450501D01*
X60077297Y-81431934D01*
X60046852Y-81406948D01*
X60021866Y-81376503D01*
X60003299Y-81341767D01*
X59991865Y-81304074D01*
X59987400Y-81258739D01*
X59987400Y-80172061D01*
X59991865Y-80126726D01*
X60003299Y-80089033D01*
X60021866Y-80054297D01*
X60046852Y-80023852D01*
X60077297Y-79998866D01*
X60112033Y-79980299D01*
X60149726Y-79968865D01*
X60195061Y-79964400D01*
X61031739Y-79964400D01*
X61077074Y-79968865D01*
G37*
G36*
X59027074Y-79968865D02*
G01*
X59064767Y-79980299D01*
X59099503Y-79998866D01*
X59129948Y-80023852D01*
X59154934Y-80054297D01*
X59173501Y-80089033D01*
X59184935Y-80126726D01*
X59189400Y-80172061D01*
X59189400Y-81258739D01*
X59184935Y-81304074D01*
X59173501Y-81341767D01*
X59154934Y-81376503D01*
X59129948Y-81406948D01*
X59099503Y-81431934D01*
X59064767Y-81450501D01*
X59027074Y-81461935D01*
X58981739Y-81466400D01*
X58145061Y-81466400D01*
X58099726Y-81461935D01*
X58062033Y-81450501D01*
X58027297Y-81431934D01*
X57996852Y-81406948D01*
X57971866Y-81376503D01*
X57953299Y-81341767D01*
X57941865Y-81304074D01*
X57937400Y-81258739D01*
X57937400Y-80172061D01*
X57941865Y-80126726D01*
X57953299Y-80089033D01*
X57971866Y-80054297D01*
X57996852Y-80023852D01*
X58027297Y-79998866D01*
X58062033Y-79980299D01*
X58099726Y-79968865D01*
X58145061Y-79964400D01*
X58981739Y-79964400D01*
X59027074Y-79968865D01*
G37*
G36*
X53756206Y-79923865D02*
G01*
X53793899Y-79935299D01*
X53828635Y-79953866D01*
X53859080Y-79978852D01*
X53884066Y-80009297D01*
X53902633Y-80044033D01*
X53914067Y-80081726D01*
X53918532Y-80127061D01*
X53918532Y-81213739D01*
X53914067Y-81259074D01*
X53902633Y-81296767D01*
X53884066Y-81331503D01*
X53859080Y-81361948D01*
X53828635Y-81386934D01*
X53793899Y-81405501D01*
X53756206Y-81416935D01*
X53710871Y-81421400D01*
X52874193Y-81421400D01*
X52828858Y-81416935D01*
X52791165Y-81405501D01*
X52756429Y-81386934D01*
X52725984Y-81361948D01*
X52700998Y-81331503D01*
X52682431Y-81296767D01*
X52670997Y-81259074D01*
X52666532Y-81213739D01*
X52666532Y-80127061D01*
X52670997Y-80081726D01*
X52682431Y-80044033D01*
X52700998Y-80009297D01*
X52725984Y-79978852D01*
X52756429Y-79953866D01*
X52791165Y-79935299D01*
X52828858Y-79923865D01*
X52874193Y-79919400D01*
X53710871Y-79919400D01*
X53756206Y-79923865D01*
G37*
G36*
X55806206Y-79923865D02*
G01*
X55843899Y-79935299D01*
X55878635Y-79953866D01*
X55909080Y-79978852D01*
X55934066Y-80009297D01*
X55952633Y-80044033D01*
X55964067Y-80081726D01*
X55968532Y-80127061D01*
X55968532Y-81213739D01*
X55964067Y-81259074D01*
X55952633Y-81296767D01*
X55934066Y-81331503D01*
X55909080Y-81361948D01*
X55878635Y-81386934D01*
X55843899Y-81405501D01*
X55806206Y-81416935D01*
X55760871Y-81421400D01*
X54924193Y-81421400D01*
X54878858Y-81416935D01*
X54841165Y-81405501D01*
X54806429Y-81386934D01*
X54775984Y-81361948D01*
X54750998Y-81331503D01*
X54732431Y-81296767D01*
X54720997Y-81259074D01*
X54716532Y-81213739D01*
X54716532Y-80127061D01*
X54720997Y-80081726D01*
X54732431Y-80044033D01*
X54750998Y-80009297D01*
X54775984Y-79978852D01*
X54806429Y-79953866D01*
X54841165Y-79935299D01*
X54878858Y-79923865D01*
X54924193Y-79919400D01*
X55760871Y-79919400D01*
X55806206Y-79923865D01*
G37*
G36*
X45082474Y-79441265D02*
G01*
X45120167Y-79452699D01*
X45154903Y-79471266D01*
X45185348Y-79496252D01*
X45210334Y-79526697D01*
X45228901Y-79561433D01*
X45240335Y-79599126D01*
X45244800Y-79644461D01*
X45244800Y-80731139D01*
X45240335Y-80776474D01*
X45228901Y-80814167D01*
X45210334Y-80848903D01*
X45185348Y-80879348D01*
X45154903Y-80904334D01*
X45120167Y-80922901D01*
X45082474Y-80934335D01*
X45037139Y-80938800D01*
X44200461Y-80938800D01*
X44155126Y-80934335D01*
X44117433Y-80922901D01*
X44082697Y-80904334D01*
X44052252Y-80879348D01*
X44027266Y-80848903D01*
X44008699Y-80814167D01*
X43997265Y-80776474D01*
X43992800Y-80731139D01*
X43992800Y-79644461D01*
X43997265Y-79599126D01*
X44008699Y-79561433D01*
X44027266Y-79526697D01*
X44052252Y-79496252D01*
X44082697Y-79471266D01*
X44117433Y-79452699D01*
X44155126Y-79441265D01*
X44200461Y-79436800D01*
X45037139Y-79436800D01*
X45082474Y-79441265D01*
G37*
G36*
X47132474Y-79441265D02*
G01*
X47170167Y-79452699D01*
X47204903Y-79471266D01*
X47235348Y-79496252D01*
X47260334Y-79526697D01*
X47278901Y-79561433D01*
X47290335Y-79599126D01*
X47294800Y-79644461D01*
X47294800Y-80731139D01*
X47290335Y-80776474D01*
X47278901Y-80814167D01*
X47260334Y-80848903D01*
X47235348Y-80879348D01*
X47204903Y-80904334D01*
X47170167Y-80922901D01*
X47132474Y-80934335D01*
X47087139Y-80938800D01*
X46250461Y-80938800D01*
X46205126Y-80934335D01*
X46167433Y-80922901D01*
X46132697Y-80904334D01*
X46102252Y-80879348D01*
X46077266Y-80848903D01*
X46058699Y-80814167D01*
X46047265Y-80776474D01*
X46042800Y-80731139D01*
X46042800Y-79644461D01*
X46047265Y-79599126D01*
X46058699Y-79561433D01*
X46077266Y-79526697D01*
X46102252Y-79496252D01*
X46132697Y-79471266D01*
X46167433Y-79452699D01*
X46205126Y-79441265D01*
X46250461Y-79436800D01*
X47087139Y-79436800D01*
X47132474Y-79441265D01*
G37*
G36*
X51475874Y-79238065D02*
G01*
X51513567Y-79249499D01*
X51548303Y-79268066D01*
X51578748Y-79293052D01*
X51603734Y-79323497D01*
X51622301Y-79358233D01*
X51633735Y-79395926D01*
X51638200Y-79441261D01*
X51638200Y-80527939D01*
X51633735Y-80573274D01*
X51622301Y-80610967D01*
X51603734Y-80645703D01*
X51578748Y-80676148D01*
X51548303Y-80701134D01*
X51513567Y-80719701D01*
X51475874Y-80731135D01*
X51430539Y-80735600D01*
X50593861Y-80735600D01*
X50548526Y-80731135D01*
X50510833Y-80719701D01*
X50476097Y-80701134D01*
X50445652Y-80676148D01*
X50420666Y-80645703D01*
X50402099Y-80610967D01*
X50390665Y-80573274D01*
X50386200Y-80527939D01*
X50386200Y-79441261D01*
X50390665Y-79395926D01*
X50402099Y-79358233D01*
X50420666Y-79323497D01*
X50445652Y-79293052D01*
X50476097Y-79268066D01*
X50510833Y-79249499D01*
X50548526Y-79238065D01*
X50593861Y-79233600D01*
X51430539Y-79233600D01*
X51475874Y-79238065D01*
G37*
G36*
X49425874Y-79238065D02*
G01*
X49463567Y-79249499D01*
X49498303Y-79268066D01*
X49528748Y-79293052D01*
X49553734Y-79323497D01*
X49572301Y-79358233D01*
X49583735Y-79395926D01*
X49588200Y-79441261D01*
X49588200Y-80527939D01*
X49583735Y-80573274D01*
X49572301Y-80610967D01*
X49553734Y-80645703D01*
X49528748Y-80676148D01*
X49498303Y-80701134D01*
X49463567Y-80719701D01*
X49425874Y-80731135D01*
X49380539Y-80735600D01*
X48543861Y-80735600D01*
X48498526Y-80731135D01*
X48460833Y-80719701D01*
X48426097Y-80701134D01*
X48395652Y-80676148D01*
X48370666Y-80645703D01*
X48352099Y-80610967D01*
X48340665Y-80573274D01*
X48336200Y-80527939D01*
X48336200Y-79441261D01*
X48340665Y-79395926D01*
X48352099Y-79358233D01*
X48370666Y-79323497D01*
X48395652Y-79293052D01*
X48426097Y-79268066D01*
X48460833Y-79249499D01*
X48498526Y-79238065D01*
X48543861Y-79233600D01*
X49380539Y-79233600D01*
X49425874Y-79238065D01*
G37*
G36*
X49795912Y-76091327D02*
G01*
X49945212Y-76121024D01*
X50109184Y-76188944D01*
X50256754Y-76287547D01*
X50382253Y-76413046D01*
X50480856Y-76560616D01*
X50548776Y-76724588D01*
X50583400Y-76898659D01*
X50583400Y-77076141D01*
X50548776Y-77250212D01*
X50480856Y-77414184D01*
X50382253Y-77561754D01*
X50256754Y-77687253D01*
X50109184Y-77785856D01*
X49945212Y-77853776D01*
X49795912Y-77883473D01*
X49771142Y-77888400D01*
X49593658Y-77888400D01*
X49568888Y-77883473D01*
X49419588Y-77853776D01*
X49255616Y-77785856D01*
X49108046Y-77687253D01*
X48982547Y-77561754D01*
X48883944Y-77414184D01*
X48816024Y-77250212D01*
X48781400Y-77076141D01*
X48781400Y-76898659D01*
X48816024Y-76724588D01*
X48883944Y-76560616D01*
X48982547Y-76413046D01*
X49108046Y-76287547D01*
X49255616Y-76188944D01*
X49419588Y-76121024D01*
X49568888Y-76091327D01*
X49593658Y-76086400D01*
X49771142Y-76086400D01*
X49795912Y-76091327D01*
G37*
G36*
X54875912Y-76091327D02*
G01*
X55025212Y-76121024D01*
X55189184Y-76188944D01*
X55336754Y-76287547D01*
X55462253Y-76413046D01*
X55560856Y-76560616D01*
X55628776Y-76724588D01*
X55663400Y-76898659D01*
X55663400Y-77076141D01*
X55628776Y-77250212D01*
X55560856Y-77414184D01*
X55462253Y-77561754D01*
X55336754Y-77687253D01*
X55189184Y-77785856D01*
X55025212Y-77853776D01*
X54875912Y-77883473D01*
X54851142Y-77888400D01*
X54673658Y-77888400D01*
X54648888Y-77883473D01*
X54499588Y-77853776D01*
X54335616Y-77785856D01*
X54188046Y-77687253D01*
X54062547Y-77561754D01*
X53963944Y-77414184D01*
X53896024Y-77250212D01*
X53861400Y-77076141D01*
X53861400Y-76898659D01*
X53896024Y-76724588D01*
X53963944Y-76560616D01*
X54062547Y-76413046D01*
X54188046Y-76287547D01*
X54335616Y-76188944D01*
X54499588Y-76121024D01*
X54648888Y-76091327D01*
X54673658Y-76086400D01*
X54851142Y-76086400D01*
X54875912Y-76091327D01*
G37*
G36*
X57415912Y-76091327D02*
G01*
X57565212Y-76121024D01*
X57729184Y-76188944D01*
X57876754Y-76287547D01*
X58002253Y-76413046D01*
X58100856Y-76560616D01*
X58168776Y-76724588D01*
X58203400Y-76898659D01*
X58203400Y-77076141D01*
X58168776Y-77250212D01*
X58100856Y-77414184D01*
X58002253Y-77561754D01*
X57876754Y-77687253D01*
X57729184Y-77785856D01*
X57565212Y-77853776D01*
X57415912Y-77883473D01*
X57391142Y-77888400D01*
X57213658Y-77888400D01*
X57188888Y-77883473D01*
X57039588Y-77853776D01*
X56875616Y-77785856D01*
X56728046Y-77687253D01*
X56602547Y-77561754D01*
X56503944Y-77414184D01*
X56436024Y-77250212D01*
X56401400Y-77076141D01*
X56401400Y-76898659D01*
X56436024Y-76724588D01*
X56503944Y-76560616D01*
X56602547Y-76413046D01*
X56728046Y-76287547D01*
X56875616Y-76188944D01*
X57039588Y-76121024D01*
X57188888Y-76091327D01*
X57213658Y-76086400D01*
X57391142Y-76086400D01*
X57415912Y-76091327D01*
G37*
G36*
X59955912Y-76091327D02*
G01*
X60105212Y-76121024D01*
X60269184Y-76188944D01*
X60416754Y-76287547D01*
X60542253Y-76413046D01*
X60640856Y-76560616D01*
X60708776Y-76724588D01*
X60743400Y-76898659D01*
X60743400Y-77076141D01*
X60708776Y-77250212D01*
X60640856Y-77414184D01*
X60542253Y-77561754D01*
X60416754Y-77687253D01*
X60269184Y-77785856D01*
X60105212Y-77853776D01*
X59955912Y-77883473D01*
X59931142Y-77888400D01*
X59753658Y-77888400D01*
X59728888Y-77883473D01*
X59579588Y-77853776D01*
X59415616Y-77785856D01*
X59268046Y-77687253D01*
X59142547Y-77561754D01*
X59043944Y-77414184D01*
X58976024Y-77250212D01*
X58941400Y-77076141D01*
X58941400Y-76898659D01*
X58976024Y-76724588D01*
X59043944Y-76560616D01*
X59142547Y-76413046D01*
X59268046Y-76287547D01*
X59415616Y-76188944D01*
X59579588Y-76121024D01*
X59728888Y-76091327D01*
X59753658Y-76086400D01*
X59931142Y-76086400D01*
X59955912Y-76091327D01*
G37*
G36*
X42963400Y-77888400D02*
G01*
X41161400Y-77888400D01*
X41161400Y-76086400D01*
X42963400Y-76086400D01*
X42963400Y-77888400D01*
G37*
G36*
X52335912Y-76091327D02*
G01*
X52485212Y-76121024D01*
X52649184Y-76188944D01*
X52796754Y-76287547D01*
X52922253Y-76413046D01*
X53020856Y-76560616D01*
X53088776Y-76724588D01*
X53123400Y-76898659D01*
X53123400Y-77076141D01*
X53088776Y-77250212D01*
X53020856Y-77414184D01*
X52922253Y-77561754D01*
X52796754Y-77687253D01*
X52649184Y-77785856D01*
X52485212Y-77853776D01*
X52335912Y-77883473D01*
X52311142Y-77888400D01*
X52133658Y-77888400D01*
X52108888Y-77883473D01*
X51959588Y-77853776D01*
X51795616Y-77785856D01*
X51648046Y-77687253D01*
X51522547Y-77561754D01*
X51423944Y-77414184D01*
X51356024Y-77250212D01*
X51321400Y-77076141D01*
X51321400Y-76898659D01*
X51356024Y-76724588D01*
X51423944Y-76560616D01*
X51522547Y-76413046D01*
X51648046Y-76287547D01*
X51795616Y-76188944D01*
X51959588Y-76121024D01*
X52108888Y-76091327D01*
X52133658Y-76086400D01*
X52311142Y-76086400D01*
X52335912Y-76091327D01*
G37*
G36*
X44715912Y-76091327D02*
G01*
X44865212Y-76121024D01*
X45029184Y-76188944D01*
X45176754Y-76287547D01*
X45302253Y-76413046D01*
X45400856Y-76560616D01*
X45468776Y-76724588D01*
X45503400Y-76898659D01*
X45503400Y-77076141D01*
X45468776Y-77250212D01*
X45400856Y-77414184D01*
X45302253Y-77561754D01*
X45176754Y-77687253D01*
X45029184Y-77785856D01*
X44865212Y-77853776D01*
X44715912Y-77883473D01*
X44691142Y-77888400D01*
X44513658Y-77888400D01*
X44488888Y-77883473D01*
X44339588Y-77853776D01*
X44175616Y-77785856D01*
X44028046Y-77687253D01*
X43902547Y-77561754D01*
X43803944Y-77414184D01*
X43736024Y-77250212D01*
X43701400Y-77076141D01*
X43701400Y-76898659D01*
X43736024Y-76724588D01*
X43803944Y-76560616D01*
X43902547Y-76413046D01*
X44028046Y-76287547D01*
X44175616Y-76188944D01*
X44339588Y-76121024D01*
X44488888Y-76091327D01*
X44513658Y-76086400D01*
X44691142Y-76086400D01*
X44715912Y-76091327D01*
G37*
G36*
X47255912Y-76091327D02*
G01*
X47405212Y-76121024D01*
X47569184Y-76188944D01*
X47716754Y-76287547D01*
X47842253Y-76413046D01*
X47940856Y-76560616D01*
X48008776Y-76724588D01*
X48043400Y-76898659D01*
X48043400Y-77076141D01*
X48008776Y-77250212D01*
X47940856Y-77414184D01*
X47842253Y-77561754D01*
X47716754Y-77687253D01*
X47569184Y-77785856D01*
X47405212Y-77853776D01*
X47255912Y-77883473D01*
X47231142Y-77888400D01*
X47053658Y-77888400D01*
X47028888Y-77883473D01*
X46879588Y-77853776D01*
X46715616Y-77785856D01*
X46568046Y-77687253D01*
X46442547Y-77561754D01*
X46343944Y-77414184D01*
X46276024Y-77250212D01*
X46241400Y-77076141D01*
X46241400Y-76898659D01*
X46276024Y-76724588D01*
X46343944Y-76560616D01*
X46442547Y-76413046D01*
X46568046Y-76287547D01*
X46715616Y-76188944D01*
X46879588Y-76121024D01*
X47028888Y-76091327D01*
X47053658Y-76086400D01*
X47231142Y-76086400D01*
X47255912Y-76091327D01*
G37*
G36*
X59955912Y-73551327D02*
G01*
X60105212Y-73581024D01*
X60269184Y-73648944D01*
X60416754Y-73747547D01*
X60542253Y-73873046D01*
X60640856Y-74020616D01*
X60708776Y-74184588D01*
X60743400Y-74358659D01*
X60743400Y-74536141D01*
X60708776Y-74710212D01*
X60640856Y-74874184D01*
X60542253Y-75021754D01*
X60416754Y-75147253D01*
X60269184Y-75245856D01*
X60105212Y-75313776D01*
X59955912Y-75343473D01*
X59931142Y-75348400D01*
X59753658Y-75348400D01*
X59728888Y-75343473D01*
X59579588Y-75313776D01*
X59415616Y-75245856D01*
X59268046Y-75147253D01*
X59142547Y-75021754D01*
X59043944Y-74874184D01*
X58976024Y-74710212D01*
X58941400Y-74536141D01*
X58941400Y-74358659D01*
X58976024Y-74184588D01*
X59043944Y-74020616D01*
X59142547Y-73873046D01*
X59268046Y-73747547D01*
X59415616Y-73648944D01*
X59579588Y-73581024D01*
X59728888Y-73551327D01*
X59753658Y-73546400D01*
X59931142Y-73546400D01*
X59955912Y-73551327D01*
G37*
G36*
X52335912Y-73551327D02*
G01*
X52485212Y-73581024D01*
X52649184Y-73648944D01*
X52796754Y-73747547D01*
X52922253Y-73873046D01*
X53020856Y-74020616D01*
X53088776Y-74184588D01*
X53123400Y-74358659D01*
X53123400Y-74536141D01*
X53088776Y-74710212D01*
X53020856Y-74874184D01*
X52922253Y-75021754D01*
X52796754Y-75147253D01*
X52649184Y-75245856D01*
X52485212Y-75313776D01*
X52335912Y-75343473D01*
X52311142Y-75348400D01*
X52133658Y-75348400D01*
X52108888Y-75343473D01*
X51959588Y-75313776D01*
X51795616Y-75245856D01*
X51648046Y-75147253D01*
X51522547Y-75021754D01*
X51423944Y-74874184D01*
X51356024Y-74710212D01*
X51321400Y-74536141D01*
X51321400Y-74358659D01*
X51356024Y-74184588D01*
X51423944Y-74020616D01*
X51522547Y-73873046D01*
X51648046Y-73747547D01*
X51795616Y-73648944D01*
X51959588Y-73581024D01*
X52108888Y-73551327D01*
X52133658Y-73546400D01*
X52311142Y-73546400D01*
X52335912Y-73551327D01*
G37*
G36*
X54875912Y-73551327D02*
G01*
X55025212Y-73581024D01*
X55189184Y-73648944D01*
X55336754Y-73747547D01*
X55462253Y-73873046D01*
X55560856Y-74020616D01*
X55628776Y-74184588D01*
X55663400Y-74358659D01*
X55663400Y-74536141D01*
X55628776Y-74710212D01*
X55560856Y-74874184D01*
X55462253Y-75021754D01*
X55336754Y-75147253D01*
X55189184Y-75245856D01*
X55025212Y-75313776D01*
X54875912Y-75343473D01*
X54851142Y-75348400D01*
X54673658Y-75348400D01*
X54648888Y-75343473D01*
X54499588Y-75313776D01*
X54335616Y-75245856D01*
X54188046Y-75147253D01*
X54062547Y-75021754D01*
X53963944Y-74874184D01*
X53896024Y-74710212D01*
X53861400Y-74536141D01*
X53861400Y-74358659D01*
X53896024Y-74184588D01*
X53963944Y-74020616D01*
X54062547Y-73873046D01*
X54188046Y-73747547D01*
X54335616Y-73648944D01*
X54499588Y-73581024D01*
X54648888Y-73551327D01*
X54673658Y-73546400D01*
X54851142Y-73546400D01*
X54875912Y-73551327D01*
G37*
G36*
X57415912Y-73551327D02*
G01*
X57565212Y-73581024D01*
X57729184Y-73648944D01*
X57876754Y-73747547D01*
X58002253Y-73873046D01*
X58100856Y-74020616D01*
X58168776Y-74184588D01*
X58203400Y-74358659D01*
X58203400Y-74536141D01*
X58168776Y-74710212D01*
X58100856Y-74874184D01*
X58002253Y-75021754D01*
X57876754Y-75147253D01*
X57729184Y-75245856D01*
X57565212Y-75313776D01*
X57415912Y-75343473D01*
X57391142Y-75348400D01*
X57213658Y-75348400D01*
X57188888Y-75343473D01*
X57039588Y-75313776D01*
X56875616Y-75245856D01*
X56728046Y-75147253D01*
X56602547Y-75021754D01*
X56503944Y-74874184D01*
X56436024Y-74710212D01*
X56401400Y-74536141D01*
X56401400Y-74358659D01*
X56436024Y-74184588D01*
X56503944Y-74020616D01*
X56602547Y-73873046D01*
X56728046Y-73747547D01*
X56875616Y-73648944D01*
X57039588Y-73581024D01*
X57188888Y-73551327D01*
X57213658Y-73546400D01*
X57391142Y-73546400D01*
X57415912Y-73551327D01*
G37*
G36*
X49795912Y-73551327D02*
G01*
X49945212Y-73581024D01*
X50109184Y-73648944D01*
X50256754Y-73747547D01*
X50382253Y-73873046D01*
X50480856Y-74020616D01*
X50548776Y-74184588D01*
X50583400Y-74358659D01*
X50583400Y-74536141D01*
X50548776Y-74710212D01*
X50480856Y-74874184D01*
X50382253Y-75021754D01*
X50256754Y-75147253D01*
X50109184Y-75245856D01*
X49945212Y-75313776D01*
X49795912Y-75343473D01*
X49771142Y-75348400D01*
X49593658Y-75348400D01*
X49568888Y-75343473D01*
X49419588Y-75313776D01*
X49255616Y-75245856D01*
X49108046Y-75147253D01*
X48982547Y-75021754D01*
X48883944Y-74874184D01*
X48816024Y-74710212D01*
X48781400Y-74536141D01*
X48781400Y-74358659D01*
X48816024Y-74184588D01*
X48883944Y-74020616D01*
X48982547Y-73873046D01*
X49108046Y-73747547D01*
X49255616Y-73648944D01*
X49419588Y-73581024D01*
X49568888Y-73551327D01*
X49593658Y-73546400D01*
X49771142Y-73546400D01*
X49795912Y-73551327D01*
G37*
G36*
X42175912Y-73551327D02*
G01*
X42325212Y-73581024D01*
X42489184Y-73648944D01*
X42636754Y-73747547D01*
X42762253Y-73873046D01*
X42860856Y-74020616D01*
X42928776Y-74184588D01*
X42963400Y-74358659D01*
X42963400Y-74536141D01*
X42928776Y-74710212D01*
X42860856Y-74874184D01*
X42762253Y-75021754D01*
X42636754Y-75147253D01*
X42489184Y-75245856D01*
X42325212Y-75313776D01*
X42175912Y-75343473D01*
X42151142Y-75348400D01*
X41973658Y-75348400D01*
X41948888Y-75343473D01*
X41799588Y-75313776D01*
X41635616Y-75245856D01*
X41488046Y-75147253D01*
X41362547Y-75021754D01*
X41263944Y-74874184D01*
X41196024Y-74710212D01*
X41161400Y-74536141D01*
X41161400Y-74358659D01*
X41196024Y-74184588D01*
X41263944Y-74020616D01*
X41362547Y-73873046D01*
X41488046Y-73747547D01*
X41635616Y-73648944D01*
X41799588Y-73581024D01*
X41948888Y-73551327D01*
X41973658Y-73546400D01*
X42151142Y-73546400D01*
X42175912Y-73551327D01*
G37*
G36*
X47255912Y-73551327D02*
G01*
X47405212Y-73581024D01*
X47569184Y-73648944D01*
X47716754Y-73747547D01*
X47842253Y-73873046D01*
X47940856Y-74020616D01*
X48008776Y-74184588D01*
X48043400Y-74358659D01*
X48043400Y-74536141D01*
X48008776Y-74710212D01*
X47940856Y-74874184D01*
X47842253Y-75021754D01*
X47716754Y-75147253D01*
X47569184Y-75245856D01*
X47405212Y-75313776D01*
X47255912Y-75343473D01*
X47231142Y-75348400D01*
X47053658Y-75348400D01*
X47028888Y-75343473D01*
X46879588Y-75313776D01*
X46715616Y-75245856D01*
X46568046Y-75147253D01*
X46442547Y-75021754D01*
X46343944Y-74874184D01*
X46276024Y-74710212D01*
X46241400Y-74536141D01*
X46241400Y-74358659D01*
X46276024Y-74184588D01*
X46343944Y-74020616D01*
X46442547Y-73873046D01*
X46568046Y-73747547D01*
X46715616Y-73648944D01*
X46879588Y-73581024D01*
X47028888Y-73551327D01*
X47053658Y-73546400D01*
X47231142Y-73546400D01*
X47255912Y-73551327D01*
G37*
G36*
X44715912Y-73551327D02*
G01*
X44865212Y-73581024D01*
X45029184Y-73648944D01*
X45176754Y-73747547D01*
X45302253Y-73873046D01*
X45400856Y-74020616D01*
X45468776Y-74184588D01*
X45503400Y-74358659D01*
X45503400Y-74536141D01*
X45468776Y-74710212D01*
X45400856Y-74874184D01*
X45302253Y-75021754D01*
X45176754Y-75147253D01*
X45029184Y-75245856D01*
X44865212Y-75313776D01*
X44715912Y-75343473D01*
X44691142Y-75348400D01*
X44513658Y-75348400D01*
X44488888Y-75343473D01*
X44339588Y-75313776D01*
X44175616Y-75245856D01*
X44028046Y-75147253D01*
X43902547Y-75021754D01*
X43803944Y-74874184D01*
X43736024Y-74710212D01*
X43701400Y-74536141D01*
X43701400Y-74358659D01*
X43736024Y-74184588D01*
X43803944Y-74020616D01*
X43902547Y-73873046D01*
X44028046Y-73747547D01*
X44175616Y-73648944D01*
X44339588Y-73581024D01*
X44488888Y-73551327D01*
X44513658Y-73546400D01*
X44691142Y-73546400D01*
X44715912Y-73551327D01*
G37*
M02*
