G04 #@! TF.GenerationSoftware,KiCad,Pcbnew,(5.1.5)-3*
G04 #@! TF.CreationDate,2020-11-10T12:23:10+03:00*
G04 #@! TF.ProjectId,rasphat_proj2,72617370-6861-4745-9f70-726f6a322e6b,rev?*
G04 #@! TF.SameCoordinates,Original*
G04 #@! TF.FileFunction,Copper,L2,Bot*
G04 #@! TF.FilePolarity,Positive*
%FSLAX46Y46*%
G04 Gerber Fmt 4.6, Leading zero omitted, Abs format (unit mm)*
G04 Created by KiCad (PCBNEW (5.1.5)-3) date 2020-11-10 12:23:10*
%MOMM*%
%LPD*%
G04 APERTURE LIST*
%ADD10C,2.000000*%
%ADD11O,1.700000X1.700000*%
%ADD12R,1.700000X1.700000*%
%ADD13C,0.800000*%
%ADD14C,0.250000*%
%ADD15C,0.254000*%
G04 APERTURE END LIST*
D10*
X43233200Y-88925400D03*
X43233200Y-84425400D03*
X49733200Y-88925400D03*
X49733200Y-84425400D03*
D11*
X61036200Y-88595200D03*
X58496200Y-88595200D03*
X55956200Y-88595200D03*
D12*
X53416200Y-88595200D03*
X42062400Y-76987400D03*
D11*
X42062400Y-74447400D03*
X44602400Y-76987400D03*
X44602400Y-74447400D03*
X47142400Y-76987400D03*
X47142400Y-74447400D03*
X49682400Y-76987400D03*
X49682400Y-74447400D03*
X52222400Y-76987400D03*
X52222400Y-74447400D03*
X54762400Y-76987400D03*
X54762400Y-74447400D03*
X57302400Y-76987400D03*
X57302400Y-74447400D03*
X59842400Y-76987400D03*
X59842400Y-74447400D03*
D13*
X52603400Y-83083400D03*
D14*
X47790100Y-78879700D02*
X49682400Y-76987400D01*
X47790100Y-80759300D02*
X47790100Y-78879700D01*
X52603400Y-83083400D02*
X52203401Y-82683401D01*
X49714201Y-82683401D02*
X47790100Y-80759300D01*
X52203401Y-82683401D02*
X49714201Y-82683401D01*
D15*
G36*
X62021055Y-87762790D02*
G01*
X61855340Y-87597075D01*
X61644876Y-87456447D01*
X61411021Y-87359581D01*
X61162761Y-87310200D01*
X60909639Y-87310200D01*
X60661379Y-87359581D01*
X60427524Y-87456447D01*
X60217060Y-87597075D01*
X60038075Y-87776060D01*
X59897447Y-87986524D01*
X59800581Y-88220379D01*
X59766200Y-88393227D01*
X59731819Y-88220379D01*
X59634953Y-87986524D01*
X59494325Y-87776060D01*
X59315340Y-87597075D01*
X59104876Y-87456447D01*
X58871021Y-87359581D01*
X58622761Y-87310200D01*
X58369639Y-87310200D01*
X58121379Y-87359581D01*
X57887524Y-87456447D01*
X57677060Y-87597075D01*
X57498075Y-87776060D01*
X57357447Y-87986524D01*
X57260581Y-88220379D01*
X57226200Y-88393227D01*
X57191819Y-88220379D01*
X57094953Y-87986524D01*
X56954325Y-87776060D01*
X56775340Y-87597075D01*
X56564876Y-87456447D01*
X56331021Y-87359581D01*
X56082761Y-87310200D01*
X55829639Y-87310200D01*
X55581379Y-87359581D01*
X55347524Y-87456447D01*
X55137060Y-87597075D01*
X54958075Y-87776060D01*
X54817447Y-87986524D01*
X54720581Y-88220379D01*
X54703304Y-88307238D01*
X54703304Y-87745200D01*
X54694905Y-87659925D01*
X54670031Y-87577928D01*
X54629639Y-87502358D01*
X54575279Y-87436121D01*
X54509042Y-87381761D01*
X54433472Y-87341369D01*
X54351475Y-87316495D01*
X54266200Y-87308096D01*
X52566200Y-87308096D01*
X52480925Y-87316495D01*
X52398928Y-87341369D01*
X52323358Y-87381761D01*
X52257121Y-87436121D01*
X52202761Y-87502358D01*
X52162369Y-87577928D01*
X52137495Y-87659925D01*
X52129096Y-87745200D01*
X52129096Y-89445200D01*
X52137495Y-89530475D01*
X52162369Y-89612472D01*
X52202761Y-89688042D01*
X52257121Y-89754279D01*
X52323358Y-89808639D01*
X52398928Y-89849031D01*
X52480925Y-89873905D01*
X52566200Y-89882304D01*
X54266200Y-89882304D01*
X54351475Y-89873905D01*
X54433472Y-89849031D01*
X54509042Y-89808639D01*
X54575279Y-89754279D01*
X54629639Y-89688042D01*
X54670031Y-89612472D01*
X54694905Y-89530475D01*
X54703304Y-89445200D01*
X54703304Y-88883162D01*
X54720581Y-88970021D01*
X54817447Y-89203876D01*
X54958075Y-89414340D01*
X55137060Y-89593325D01*
X55347524Y-89733953D01*
X55581379Y-89830819D01*
X55829639Y-89880200D01*
X56082761Y-89880200D01*
X56331021Y-89830819D01*
X56564876Y-89733953D01*
X56775340Y-89593325D01*
X56954325Y-89414340D01*
X57094953Y-89203876D01*
X57191819Y-88970021D01*
X57226200Y-88797173D01*
X57260581Y-88970021D01*
X57357447Y-89203876D01*
X57498075Y-89414340D01*
X57677060Y-89593325D01*
X57887524Y-89733953D01*
X58121379Y-89830819D01*
X58369639Y-89880200D01*
X58622761Y-89880200D01*
X58871021Y-89830819D01*
X59104876Y-89733953D01*
X59315340Y-89593325D01*
X59494325Y-89414340D01*
X59634953Y-89203876D01*
X59731819Y-88970021D01*
X59766200Y-88797173D01*
X59800581Y-88970021D01*
X59897447Y-89203876D01*
X60038075Y-89414340D01*
X60217060Y-89593325D01*
X60427524Y-89733953D01*
X60661379Y-89830819D01*
X60909639Y-89880200D01*
X61162761Y-89880200D01*
X61411021Y-89830819D01*
X61644876Y-89733953D01*
X61855340Y-89593325D01*
X62034325Y-89414340D01*
X62037179Y-89410068D01*
X62048323Y-90548488D01*
X51565113Y-90586424D01*
X41464536Y-90476169D01*
X41451506Y-88784065D01*
X41798200Y-88784065D01*
X41798200Y-89066735D01*
X41853347Y-89343974D01*
X41961520Y-89605127D01*
X42118563Y-89840159D01*
X42318441Y-90040037D01*
X42553473Y-90197080D01*
X42814626Y-90305253D01*
X43091865Y-90360400D01*
X43374535Y-90360400D01*
X43651774Y-90305253D01*
X43912927Y-90197080D01*
X44147959Y-90040037D01*
X44347837Y-89840159D01*
X44504880Y-89605127D01*
X44613053Y-89343974D01*
X44668200Y-89066735D01*
X44668200Y-88784065D01*
X48298200Y-88784065D01*
X48298200Y-89066735D01*
X48353347Y-89343974D01*
X48461520Y-89605127D01*
X48618563Y-89840159D01*
X48818441Y-90040037D01*
X49053473Y-90197080D01*
X49314626Y-90305253D01*
X49591865Y-90360400D01*
X49874535Y-90360400D01*
X50151774Y-90305253D01*
X50412927Y-90197080D01*
X50647959Y-90040037D01*
X50847837Y-89840159D01*
X51004880Y-89605127D01*
X51113053Y-89343974D01*
X51168200Y-89066735D01*
X51168200Y-88784065D01*
X51113053Y-88506826D01*
X51004880Y-88245673D01*
X50847837Y-88010641D01*
X50647959Y-87810763D01*
X50412927Y-87653720D01*
X50151774Y-87545547D01*
X49874535Y-87490400D01*
X49591865Y-87490400D01*
X49314626Y-87545547D01*
X49053473Y-87653720D01*
X48818441Y-87810763D01*
X48618563Y-88010641D01*
X48461520Y-88245673D01*
X48353347Y-88506826D01*
X48298200Y-88784065D01*
X44668200Y-88784065D01*
X44613053Y-88506826D01*
X44504880Y-88245673D01*
X44347837Y-88010641D01*
X44147959Y-87810763D01*
X43912927Y-87653720D01*
X43651774Y-87545547D01*
X43374535Y-87490400D01*
X43091865Y-87490400D01*
X42814626Y-87545547D01*
X42553473Y-87653720D01*
X42318441Y-87810763D01*
X42118563Y-88010641D01*
X41961520Y-88245673D01*
X41853347Y-88506826D01*
X41798200Y-88784065D01*
X41451506Y-88784065D01*
X41416853Y-84284065D01*
X41798200Y-84284065D01*
X41798200Y-84566735D01*
X41853347Y-84843974D01*
X41961520Y-85105127D01*
X42118563Y-85340159D01*
X42318441Y-85540037D01*
X42553473Y-85697080D01*
X42814626Y-85805253D01*
X43091865Y-85860400D01*
X43374535Y-85860400D01*
X43651774Y-85805253D01*
X43912927Y-85697080D01*
X44147959Y-85540037D01*
X44347837Y-85340159D01*
X44504880Y-85105127D01*
X44613053Y-84843974D01*
X44668200Y-84566735D01*
X44668200Y-84284065D01*
X44613053Y-84006826D01*
X44504880Y-83745673D01*
X44347837Y-83510641D01*
X44147959Y-83310763D01*
X43912927Y-83153720D01*
X43651774Y-83045547D01*
X43374535Y-82990400D01*
X43091865Y-82990400D01*
X42814626Y-83045547D01*
X42553473Y-83153720D01*
X42318441Y-83310763D01*
X42118563Y-83510641D01*
X41961520Y-83745673D01*
X41853347Y-84006826D01*
X41798200Y-84284065D01*
X41416853Y-84284065D01*
X41376596Y-79056522D01*
X41373965Y-79031765D01*
X41368135Y-79011910D01*
X41304635Y-78846810D01*
X41293463Y-78824561D01*
X41278165Y-78804919D01*
X41259330Y-78788639D01*
X41237680Y-78776346D01*
X41214047Y-78768513D01*
X41193646Y-78765624D01*
X41112192Y-78760776D01*
X41107757Y-78756820D01*
X41077040Y-78728644D01*
X41071879Y-78724820D01*
X41039848Y-78701437D01*
X41003925Y-78680252D01*
X40968325Y-78658581D01*
X40962520Y-78655833D01*
X40926558Y-78639117D01*
X40887250Y-78625328D01*
X40848073Y-78610968D01*
X40841844Y-78609400D01*
X40815735Y-78603021D01*
X40784668Y-78593570D01*
X40717087Y-78586860D01*
X38156674Y-78584852D01*
X35995648Y-78456219D01*
X36004083Y-76570175D01*
X36202111Y-76866546D01*
X36480954Y-77145389D01*
X36808838Y-77364474D01*
X37173163Y-77515382D01*
X37559929Y-77592315D01*
X37954271Y-77592315D01*
X38341037Y-77515382D01*
X38705362Y-77364474D01*
X39033246Y-77145389D01*
X39312089Y-76866546D01*
X39531174Y-76538662D01*
X39682082Y-76174337D01*
X39689429Y-76137400D01*
X40775296Y-76137400D01*
X40775296Y-77837400D01*
X40783695Y-77922675D01*
X40808569Y-78004672D01*
X40848961Y-78080242D01*
X40903321Y-78146479D01*
X40969558Y-78200839D01*
X41045128Y-78241231D01*
X41127125Y-78266105D01*
X41212400Y-78274504D01*
X42912400Y-78274504D01*
X42997675Y-78266105D01*
X43079672Y-78241231D01*
X43155242Y-78200839D01*
X43221479Y-78146479D01*
X43275839Y-78080242D01*
X43316231Y-78004672D01*
X43341105Y-77922675D01*
X43349504Y-77837400D01*
X43349504Y-77275362D01*
X43366781Y-77362221D01*
X43463647Y-77596076D01*
X43604275Y-77806540D01*
X43783260Y-77985525D01*
X43993724Y-78126153D01*
X44227579Y-78223019D01*
X44475839Y-78272400D01*
X44728961Y-78272400D01*
X44977221Y-78223019D01*
X45211076Y-78126153D01*
X45421540Y-77985525D01*
X45600525Y-77806540D01*
X45741153Y-77596076D01*
X45838019Y-77362221D01*
X45872400Y-77189373D01*
X45906781Y-77362221D01*
X46003647Y-77596076D01*
X46144275Y-77806540D01*
X46323260Y-77985525D01*
X46533724Y-78126153D01*
X46767579Y-78223019D01*
X47015839Y-78272400D01*
X47268961Y-78272400D01*
X47517221Y-78223019D01*
X47751076Y-78126153D01*
X47752920Y-78124921D01*
X47413564Y-78464277D01*
X47392206Y-78481805D01*
X47374678Y-78503163D01*
X47374671Y-78503170D01*
X47322225Y-78567076D01*
X47270226Y-78664361D01*
X47238204Y-78769921D01*
X47227392Y-78879700D01*
X47230101Y-78907205D01*
X47230100Y-80731804D01*
X47227392Y-80759300D01*
X47230100Y-80786796D01*
X47230100Y-80786805D01*
X47238203Y-80869078D01*
X47270225Y-80974638D01*
X47322225Y-81071924D01*
X47392205Y-81157195D01*
X47413569Y-81174728D01*
X49293244Y-83054403D01*
X49053473Y-83153720D01*
X48818441Y-83310763D01*
X48618563Y-83510641D01*
X48461520Y-83745673D01*
X48353347Y-84006826D01*
X48298200Y-84284065D01*
X48298200Y-84566735D01*
X48353347Y-84843974D01*
X48461520Y-85105127D01*
X48618563Y-85340159D01*
X48818441Y-85540037D01*
X49053473Y-85697080D01*
X49314626Y-85805253D01*
X49591865Y-85860400D01*
X49874535Y-85860400D01*
X50151774Y-85805253D01*
X50412927Y-85697080D01*
X50647959Y-85540037D01*
X50847837Y-85340159D01*
X51004880Y-85105127D01*
X51113053Y-84843974D01*
X51168200Y-84566735D01*
X51168200Y-84284065D01*
X51113053Y-84006826D01*
X51004880Y-83745673D01*
X50847837Y-83510641D01*
X50647959Y-83310763D01*
X50547144Y-83243401D01*
X51783868Y-83243401D01*
X51800489Y-83326960D01*
X51863433Y-83478921D01*
X51954813Y-83615681D01*
X52071119Y-83731987D01*
X52207879Y-83823367D01*
X52359840Y-83886311D01*
X52521160Y-83918400D01*
X52685640Y-83918400D01*
X52846960Y-83886311D01*
X52998921Y-83823367D01*
X53135681Y-83731987D01*
X53251987Y-83615681D01*
X53343367Y-83478921D01*
X53406311Y-83326960D01*
X53438400Y-83165640D01*
X53438400Y-83001160D01*
X53406311Y-82839840D01*
X53343367Y-82687879D01*
X53251987Y-82551119D01*
X53135681Y-82434813D01*
X52998921Y-82343433D01*
X52846960Y-82280489D01*
X52685640Y-82248400D01*
X52556082Y-82248400D01*
X52516025Y-82215526D01*
X52418740Y-82163526D01*
X52313180Y-82131504D01*
X52230907Y-82123401D01*
X52230897Y-82123401D01*
X52203401Y-82120693D01*
X52175905Y-82123401D01*
X49946160Y-82123401D01*
X48350100Y-80527341D01*
X48350100Y-79111659D01*
X49258903Y-78202857D01*
X49307579Y-78223019D01*
X49555839Y-78272400D01*
X49808961Y-78272400D01*
X50057221Y-78223019D01*
X50291076Y-78126153D01*
X50501540Y-77985525D01*
X50680525Y-77806540D01*
X50821153Y-77596076D01*
X50918019Y-77362221D01*
X50952400Y-77189373D01*
X50986781Y-77362221D01*
X51083647Y-77596076D01*
X51224275Y-77806540D01*
X51403260Y-77985525D01*
X51613724Y-78126153D01*
X51847579Y-78223019D01*
X52095839Y-78272400D01*
X52348961Y-78272400D01*
X52597221Y-78223019D01*
X52831076Y-78126153D01*
X53041540Y-77985525D01*
X53220525Y-77806540D01*
X53361153Y-77596076D01*
X53458019Y-77362221D01*
X53492400Y-77189373D01*
X53526781Y-77362221D01*
X53623647Y-77596076D01*
X53764275Y-77806540D01*
X53943260Y-77985525D01*
X54153724Y-78126153D01*
X54387579Y-78223019D01*
X54635839Y-78272400D01*
X54888961Y-78272400D01*
X55137221Y-78223019D01*
X55371076Y-78126153D01*
X55581540Y-77985525D01*
X55760525Y-77806540D01*
X55901153Y-77596076D01*
X55998019Y-77362221D01*
X56032400Y-77189373D01*
X56066781Y-77362221D01*
X56163647Y-77596076D01*
X56304275Y-77806540D01*
X56483260Y-77985525D01*
X56693724Y-78126153D01*
X56927579Y-78223019D01*
X57175839Y-78272400D01*
X57428961Y-78272400D01*
X57677221Y-78223019D01*
X57911076Y-78126153D01*
X58121540Y-77985525D01*
X58300525Y-77806540D01*
X58441153Y-77596076D01*
X58538019Y-77362221D01*
X58572400Y-77189373D01*
X58606781Y-77362221D01*
X58703647Y-77596076D01*
X58844275Y-77806540D01*
X59023260Y-77985525D01*
X59233724Y-78126153D01*
X59467579Y-78223019D01*
X59715839Y-78272400D01*
X59968961Y-78272400D01*
X60217221Y-78223019D01*
X60451076Y-78126153D01*
X60661540Y-77985525D01*
X60840525Y-77806540D01*
X60981153Y-77596076D01*
X61078019Y-77362221D01*
X61127400Y-77113961D01*
X61127400Y-76860839D01*
X61078019Y-76612579D01*
X60981153Y-76378724D01*
X60840525Y-76168260D01*
X60661540Y-75989275D01*
X60451076Y-75848647D01*
X60217221Y-75751781D01*
X60044373Y-75717400D01*
X60217221Y-75683019D01*
X60451076Y-75586153D01*
X60661540Y-75445525D01*
X60840525Y-75266540D01*
X60981153Y-75056076D01*
X61078019Y-74822221D01*
X61127400Y-74573961D01*
X61127400Y-74320839D01*
X61078019Y-74072579D01*
X60981153Y-73838724D01*
X60840525Y-73628260D01*
X60661540Y-73449275D01*
X60451076Y-73308647D01*
X60217221Y-73211781D01*
X59968961Y-73162400D01*
X59715839Y-73162400D01*
X59467579Y-73211781D01*
X59233724Y-73308647D01*
X59023260Y-73449275D01*
X58844275Y-73628260D01*
X58703647Y-73838724D01*
X58606781Y-74072579D01*
X58572400Y-74245427D01*
X58538019Y-74072579D01*
X58441153Y-73838724D01*
X58300525Y-73628260D01*
X58121540Y-73449275D01*
X57911076Y-73308647D01*
X57677221Y-73211781D01*
X57428961Y-73162400D01*
X57175839Y-73162400D01*
X56927579Y-73211781D01*
X56693724Y-73308647D01*
X56483260Y-73449275D01*
X56304275Y-73628260D01*
X56163647Y-73838724D01*
X56066781Y-74072579D01*
X56032400Y-74245427D01*
X55998019Y-74072579D01*
X55901153Y-73838724D01*
X55760525Y-73628260D01*
X55581540Y-73449275D01*
X55371076Y-73308647D01*
X55137221Y-73211781D01*
X54888961Y-73162400D01*
X54635839Y-73162400D01*
X54387579Y-73211781D01*
X54153724Y-73308647D01*
X53943260Y-73449275D01*
X53764275Y-73628260D01*
X53623647Y-73838724D01*
X53526781Y-74072579D01*
X53492400Y-74245427D01*
X53458019Y-74072579D01*
X53361153Y-73838724D01*
X53220525Y-73628260D01*
X53041540Y-73449275D01*
X52831076Y-73308647D01*
X52597221Y-73211781D01*
X52348961Y-73162400D01*
X52095839Y-73162400D01*
X51847579Y-73211781D01*
X51613724Y-73308647D01*
X51403260Y-73449275D01*
X51224275Y-73628260D01*
X51083647Y-73838724D01*
X50986781Y-74072579D01*
X50952400Y-74245427D01*
X50918019Y-74072579D01*
X50821153Y-73838724D01*
X50680525Y-73628260D01*
X50501540Y-73449275D01*
X50291076Y-73308647D01*
X50057221Y-73211781D01*
X49808961Y-73162400D01*
X49555839Y-73162400D01*
X49307579Y-73211781D01*
X49073724Y-73308647D01*
X48863260Y-73449275D01*
X48684275Y-73628260D01*
X48543647Y-73838724D01*
X48446781Y-74072579D01*
X48412400Y-74245427D01*
X48378019Y-74072579D01*
X48281153Y-73838724D01*
X48140525Y-73628260D01*
X47961540Y-73449275D01*
X47751076Y-73308647D01*
X47517221Y-73211781D01*
X47268961Y-73162400D01*
X47015839Y-73162400D01*
X46767579Y-73211781D01*
X46533724Y-73308647D01*
X46323260Y-73449275D01*
X46144275Y-73628260D01*
X46003647Y-73838724D01*
X45906781Y-74072579D01*
X45872400Y-74245427D01*
X45838019Y-74072579D01*
X45741153Y-73838724D01*
X45600525Y-73628260D01*
X45421540Y-73449275D01*
X45211076Y-73308647D01*
X44977221Y-73211781D01*
X44728961Y-73162400D01*
X44475839Y-73162400D01*
X44227579Y-73211781D01*
X43993724Y-73308647D01*
X43783260Y-73449275D01*
X43604275Y-73628260D01*
X43463647Y-73838724D01*
X43366781Y-74072579D01*
X43332400Y-74245427D01*
X43298019Y-74072579D01*
X43201153Y-73838724D01*
X43060525Y-73628260D01*
X42881540Y-73449275D01*
X42671076Y-73308647D01*
X42437221Y-73211781D01*
X42188961Y-73162400D01*
X41935839Y-73162400D01*
X41687579Y-73211781D01*
X41453724Y-73308647D01*
X41243260Y-73449275D01*
X41064275Y-73628260D01*
X40923647Y-73838724D01*
X40826781Y-74072579D01*
X40777400Y-74320839D01*
X40777400Y-74573961D01*
X40826781Y-74822221D01*
X40923647Y-75056076D01*
X41064275Y-75266540D01*
X41243260Y-75445525D01*
X41453724Y-75586153D01*
X41687579Y-75683019D01*
X41774438Y-75700296D01*
X41212400Y-75700296D01*
X41127125Y-75708695D01*
X41045128Y-75733569D01*
X40969558Y-75773961D01*
X40903321Y-75828321D01*
X40848961Y-75894558D01*
X40808569Y-75970128D01*
X40783695Y-76052125D01*
X40775296Y-76137400D01*
X39689429Y-76137400D01*
X39759015Y-75787571D01*
X39759015Y-75393229D01*
X39682082Y-75006463D01*
X39531174Y-74642138D01*
X39312089Y-74314254D01*
X39033246Y-74035411D01*
X38705362Y-73816326D01*
X38341037Y-73665418D01*
X37954271Y-73588485D01*
X37559929Y-73588485D01*
X37173163Y-73665418D01*
X36808838Y-73816326D01*
X36480954Y-74035411D01*
X36202111Y-74314254D01*
X36012906Y-74597420D01*
X36020610Y-72874771D01*
X61874640Y-72804566D01*
X62021055Y-87762790D01*
G37*
X62021055Y-87762790D02*
X61855340Y-87597075D01*
X61644876Y-87456447D01*
X61411021Y-87359581D01*
X61162761Y-87310200D01*
X60909639Y-87310200D01*
X60661379Y-87359581D01*
X60427524Y-87456447D01*
X60217060Y-87597075D01*
X60038075Y-87776060D01*
X59897447Y-87986524D01*
X59800581Y-88220379D01*
X59766200Y-88393227D01*
X59731819Y-88220379D01*
X59634953Y-87986524D01*
X59494325Y-87776060D01*
X59315340Y-87597075D01*
X59104876Y-87456447D01*
X58871021Y-87359581D01*
X58622761Y-87310200D01*
X58369639Y-87310200D01*
X58121379Y-87359581D01*
X57887524Y-87456447D01*
X57677060Y-87597075D01*
X57498075Y-87776060D01*
X57357447Y-87986524D01*
X57260581Y-88220379D01*
X57226200Y-88393227D01*
X57191819Y-88220379D01*
X57094953Y-87986524D01*
X56954325Y-87776060D01*
X56775340Y-87597075D01*
X56564876Y-87456447D01*
X56331021Y-87359581D01*
X56082761Y-87310200D01*
X55829639Y-87310200D01*
X55581379Y-87359581D01*
X55347524Y-87456447D01*
X55137060Y-87597075D01*
X54958075Y-87776060D01*
X54817447Y-87986524D01*
X54720581Y-88220379D01*
X54703304Y-88307238D01*
X54703304Y-87745200D01*
X54694905Y-87659925D01*
X54670031Y-87577928D01*
X54629639Y-87502358D01*
X54575279Y-87436121D01*
X54509042Y-87381761D01*
X54433472Y-87341369D01*
X54351475Y-87316495D01*
X54266200Y-87308096D01*
X52566200Y-87308096D01*
X52480925Y-87316495D01*
X52398928Y-87341369D01*
X52323358Y-87381761D01*
X52257121Y-87436121D01*
X52202761Y-87502358D01*
X52162369Y-87577928D01*
X52137495Y-87659925D01*
X52129096Y-87745200D01*
X52129096Y-89445200D01*
X52137495Y-89530475D01*
X52162369Y-89612472D01*
X52202761Y-89688042D01*
X52257121Y-89754279D01*
X52323358Y-89808639D01*
X52398928Y-89849031D01*
X52480925Y-89873905D01*
X52566200Y-89882304D01*
X54266200Y-89882304D01*
X54351475Y-89873905D01*
X54433472Y-89849031D01*
X54509042Y-89808639D01*
X54575279Y-89754279D01*
X54629639Y-89688042D01*
X54670031Y-89612472D01*
X54694905Y-89530475D01*
X54703304Y-89445200D01*
X54703304Y-88883162D01*
X54720581Y-88970021D01*
X54817447Y-89203876D01*
X54958075Y-89414340D01*
X55137060Y-89593325D01*
X55347524Y-89733953D01*
X55581379Y-89830819D01*
X55829639Y-89880200D01*
X56082761Y-89880200D01*
X56331021Y-89830819D01*
X56564876Y-89733953D01*
X56775340Y-89593325D01*
X56954325Y-89414340D01*
X57094953Y-89203876D01*
X57191819Y-88970021D01*
X57226200Y-88797173D01*
X57260581Y-88970021D01*
X57357447Y-89203876D01*
X57498075Y-89414340D01*
X57677060Y-89593325D01*
X57887524Y-89733953D01*
X58121379Y-89830819D01*
X58369639Y-89880200D01*
X58622761Y-89880200D01*
X58871021Y-89830819D01*
X59104876Y-89733953D01*
X59315340Y-89593325D01*
X59494325Y-89414340D01*
X59634953Y-89203876D01*
X59731819Y-88970021D01*
X59766200Y-88797173D01*
X59800581Y-88970021D01*
X59897447Y-89203876D01*
X60038075Y-89414340D01*
X60217060Y-89593325D01*
X60427524Y-89733953D01*
X60661379Y-89830819D01*
X60909639Y-89880200D01*
X61162761Y-89880200D01*
X61411021Y-89830819D01*
X61644876Y-89733953D01*
X61855340Y-89593325D01*
X62034325Y-89414340D01*
X62037179Y-89410068D01*
X62048323Y-90548488D01*
X51565113Y-90586424D01*
X41464536Y-90476169D01*
X41451506Y-88784065D01*
X41798200Y-88784065D01*
X41798200Y-89066735D01*
X41853347Y-89343974D01*
X41961520Y-89605127D01*
X42118563Y-89840159D01*
X42318441Y-90040037D01*
X42553473Y-90197080D01*
X42814626Y-90305253D01*
X43091865Y-90360400D01*
X43374535Y-90360400D01*
X43651774Y-90305253D01*
X43912927Y-90197080D01*
X44147959Y-90040037D01*
X44347837Y-89840159D01*
X44504880Y-89605127D01*
X44613053Y-89343974D01*
X44668200Y-89066735D01*
X44668200Y-88784065D01*
X48298200Y-88784065D01*
X48298200Y-89066735D01*
X48353347Y-89343974D01*
X48461520Y-89605127D01*
X48618563Y-89840159D01*
X48818441Y-90040037D01*
X49053473Y-90197080D01*
X49314626Y-90305253D01*
X49591865Y-90360400D01*
X49874535Y-90360400D01*
X50151774Y-90305253D01*
X50412927Y-90197080D01*
X50647959Y-90040037D01*
X50847837Y-89840159D01*
X51004880Y-89605127D01*
X51113053Y-89343974D01*
X51168200Y-89066735D01*
X51168200Y-88784065D01*
X51113053Y-88506826D01*
X51004880Y-88245673D01*
X50847837Y-88010641D01*
X50647959Y-87810763D01*
X50412927Y-87653720D01*
X50151774Y-87545547D01*
X49874535Y-87490400D01*
X49591865Y-87490400D01*
X49314626Y-87545547D01*
X49053473Y-87653720D01*
X48818441Y-87810763D01*
X48618563Y-88010641D01*
X48461520Y-88245673D01*
X48353347Y-88506826D01*
X48298200Y-88784065D01*
X44668200Y-88784065D01*
X44613053Y-88506826D01*
X44504880Y-88245673D01*
X44347837Y-88010641D01*
X44147959Y-87810763D01*
X43912927Y-87653720D01*
X43651774Y-87545547D01*
X43374535Y-87490400D01*
X43091865Y-87490400D01*
X42814626Y-87545547D01*
X42553473Y-87653720D01*
X42318441Y-87810763D01*
X42118563Y-88010641D01*
X41961520Y-88245673D01*
X41853347Y-88506826D01*
X41798200Y-88784065D01*
X41451506Y-88784065D01*
X41416853Y-84284065D01*
X41798200Y-84284065D01*
X41798200Y-84566735D01*
X41853347Y-84843974D01*
X41961520Y-85105127D01*
X42118563Y-85340159D01*
X42318441Y-85540037D01*
X42553473Y-85697080D01*
X42814626Y-85805253D01*
X43091865Y-85860400D01*
X43374535Y-85860400D01*
X43651774Y-85805253D01*
X43912927Y-85697080D01*
X44147959Y-85540037D01*
X44347837Y-85340159D01*
X44504880Y-85105127D01*
X44613053Y-84843974D01*
X44668200Y-84566735D01*
X44668200Y-84284065D01*
X44613053Y-84006826D01*
X44504880Y-83745673D01*
X44347837Y-83510641D01*
X44147959Y-83310763D01*
X43912927Y-83153720D01*
X43651774Y-83045547D01*
X43374535Y-82990400D01*
X43091865Y-82990400D01*
X42814626Y-83045547D01*
X42553473Y-83153720D01*
X42318441Y-83310763D01*
X42118563Y-83510641D01*
X41961520Y-83745673D01*
X41853347Y-84006826D01*
X41798200Y-84284065D01*
X41416853Y-84284065D01*
X41376596Y-79056522D01*
X41373965Y-79031765D01*
X41368135Y-79011910D01*
X41304635Y-78846810D01*
X41293463Y-78824561D01*
X41278165Y-78804919D01*
X41259330Y-78788639D01*
X41237680Y-78776346D01*
X41214047Y-78768513D01*
X41193646Y-78765624D01*
X41112192Y-78760776D01*
X41107757Y-78756820D01*
X41077040Y-78728644D01*
X41071879Y-78724820D01*
X41039848Y-78701437D01*
X41003925Y-78680252D01*
X40968325Y-78658581D01*
X40962520Y-78655833D01*
X40926558Y-78639117D01*
X40887250Y-78625328D01*
X40848073Y-78610968D01*
X40841844Y-78609400D01*
X40815735Y-78603021D01*
X40784668Y-78593570D01*
X40717087Y-78586860D01*
X38156674Y-78584852D01*
X35995648Y-78456219D01*
X36004083Y-76570175D01*
X36202111Y-76866546D01*
X36480954Y-77145389D01*
X36808838Y-77364474D01*
X37173163Y-77515382D01*
X37559929Y-77592315D01*
X37954271Y-77592315D01*
X38341037Y-77515382D01*
X38705362Y-77364474D01*
X39033246Y-77145389D01*
X39312089Y-76866546D01*
X39531174Y-76538662D01*
X39682082Y-76174337D01*
X39689429Y-76137400D01*
X40775296Y-76137400D01*
X40775296Y-77837400D01*
X40783695Y-77922675D01*
X40808569Y-78004672D01*
X40848961Y-78080242D01*
X40903321Y-78146479D01*
X40969558Y-78200839D01*
X41045128Y-78241231D01*
X41127125Y-78266105D01*
X41212400Y-78274504D01*
X42912400Y-78274504D01*
X42997675Y-78266105D01*
X43079672Y-78241231D01*
X43155242Y-78200839D01*
X43221479Y-78146479D01*
X43275839Y-78080242D01*
X43316231Y-78004672D01*
X43341105Y-77922675D01*
X43349504Y-77837400D01*
X43349504Y-77275362D01*
X43366781Y-77362221D01*
X43463647Y-77596076D01*
X43604275Y-77806540D01*
X43783260Y-77985525D01*
X43993724Y-78126153D01*
X44227579Y-78223019D01*
X44475839Y-78272400D01*
X44728961Y-78272400D01*
X44977221Y-78223019D01*
X45211076Y-78126153D01*
X45421540Y-77985525D01*
X45600525Y-77806540D01*
X45741153Y-77596076D01*
X45838019Y-77362221D01*
X45872400Y-77189373D01*
X45906781Y-77362221D01*
X46003647Y-77596076D01*
X46144275Y-77806540D01*
X46323260Y-77985525D01*
X46533724Y-78126153D01*
X46767579Y-78223019D01*
X47015839Y-78272400D01*
X47268961Y-78272400D01*
X47517221Y-78223019D01*
X47751076Y-78126153D01*
X47752920Y-78124921D01*
X47413564Y-78464277D01*
X47392206Y-78481805D01*
X47374678Y-78503163D01*
X47374671Y-78503170D01*
X47322225Y-78567076D01*
X47270226Y-78664361D01*
X47238204Y-78769921D01*
X47227392Y-78879700D01*
X47230101Y-78907205D01*
X47230100Y-80731804D01*
X47227392Y-80759300D01*
X47230100Y-80786796D01*
X47230100Y-80786805D01*
X47238203Y-80869078D01*
X47270225Y-80974638D01*
X47322225Y-81071924D01*
X47392205Y-81157195D01*
X47413569Y-81174728D01*
X49293244Y-83054403D01*
X49053473Y-83153720D01*
X48818441Y-83310763D01*
X48618563Y-83510641D01*
X48461520Y-83745673D01*
X48353347Y-84006826D01*
X48298200Y-84284065D01*
X48298200Y-84566735D01*
X48353347Y-84843974D01*
X48461520Y-85105127D01*
X48618563Y-85340159D01*
X48818441Y-85540037D01*
X49053473Y-85697080D01*
X49314626Y-85805253D01*
X49591865Y-85860400D01*
X49874535Y-85860400D01*
X50151774Y-85805253D01*
X50412927Y-85697080D01*
X50647959Y-85540037D01*
X50847837Y-85340159D01*
X51004880Y-85105127D01*
X51113053Y-84843974D01*
X51168200Y-84566735D01*
X51168200Y-84284065D01*
X51113053Y-84006826D01*
X51004880Y-83745673D01*
X50847837Y-83510641D01*
X50647959Y-83310763D01*
X50547144Y-83243401D01*
X51783868Y-83243401D01*
X51800489Y-83326960D01*
X51863433Y-83478921D01*
X51954813Y-83615681D01*
X52071119Y-83731987D01*
X52207879Y-83823367D01*
X52359840Y-83886311D01*
X52521160Y-83918400D01*
X52685640Y-83918400D01*
X52846960Y-83886311D01*
X52998921Y-83823367D01*
X53135681Y-83731987D01*
X53251987Y-83615681D01*
X53343367Y-83478921D01*
X53406311Y-83326960D01*
X53438400Y-83165640D01*
X53438400Y-83001160D01*
X53406311Y-82839840D01*
X53343367Y-82687879D01*
X53251987Y-82551119D01*
X53135681Y-82434813D01*
X52998921Y-82343433D01*
X52846960Y-82280489D01*
X52685640Y-82248400D01*
X52556082Y-82248400D01*
X52516025Y-82215526D01*
X52418740Y-82163526D01*
X52313180Y-82131504D01*
X52230907Y-82123401D01*
X52230897Y-82123401D01*
X52203401Y-82120693D01*
X52175905Y-82123401D01*
X49946160Y-82123401D01*
X48350100Y-80527341D01*
X48350100Y-79111659D01*
X49258903Y-78202857D01*
X49307579Y-78223019D01*
X49555839Y-78272400D01*
X49808961Y-78272400D01*
X50057221Y-78223019D01*
X50291076Y-78126153D01*
X50501540Y-77985525D01*
X50680525Y-77806540D01*
X50821153Y-77596076D01*
X50918019Y-77362221D01*
X50952400Y-77189373D01*
X50986781Y-77362221D01*
X51083647Y-77596076D01*
X51224275Y-77806540D01*
X51403260Y-77985525D01*
X51613724Y-78126153D01*
X51847579Y-78223019D01*
X52095839Y-78272400D01*
X52348961Y-78272400D01*
X52597221Y-78223019D01*
X52831076Y-78126153D01*
X53041540Y-77985525D01*
X53220525Y-77806540D01*
X53361153Y-77596076D01*
X53458019Y-77362221D01*
X53492400Y-77189373D01*
X53526781Y-77362221D01*
X53623647Y-77596076D01*
X53764275Y-77806540D01*
X53943260Y-77985525D01*
X54153724Y-78126153D01*
X54387579Y-78223019D01*
X54635839Y-78272400D01*
X54888961Y-78272400D01*
X55137221Y-78223019D01*
X55371076Y-78126153D01*
X55581540Y-77985525D01*
X55760525Y-77806540D01*
X55901153Y-77596076D01*
X55998019Y-77362221D01*
X56032400Y-77189373D01*
X56066781Y-77362221D01*
X56163647Y-77596076D01*
X56304275Y-77806540D01*
X56483260Y-77985525D01*
X56693724Y-78126153D01*
X56927579Y-78223019D01*
X57175839Y-78272400D01*
X57428961Y-78272400D01*
X57677221Y-78223019D01*
X57911076Y-78126153D01*
X58121540Y-77985525D01*
X58300525Y-77806540D01*
X58441153Y-77596076D01*
X58538019Y-77362221D01*
X58572400Y-77189373D01*
X58606781Y-77362221D01*
X58703647Y-77596076D01*
X58844275Y-77806540D01*
X59023260Y-77985525D01*
X59233724Y-78126153D01*
X59467579Y-78223019D01*
X59715839Y-78272400D01*
X59968961Y-78272400D01*
X60217221Y-78223019D01*
X60451076Y-78126153D01*
X60661540Y-77985525D01*
X60840525Y-77806540D01*
X60981153Y-77596076D01*
X61078019Y-77362221D01*
X61127400Y-77113961D01*
X61127400Y-76860839D01*
X61078019Y-76612579D01*
X60981153Y-76378724D01*
X60840525Y-76168260D01*
X60661540Y-75989275D01*
X60451076Y-75848647D01*
X60217221Y-75751781D01*
X60044373Y-75717400D01*
X60217221Y-75683019D01*
X60451076Y-75586153D01*
X60661540Y-75445525D01*
X60840525Y-75266540D01*
X60981153Y-75056076D01*
X61078019Y-74822221D01*
X61127400Y-74573961D01*
X61127400Y-74320839D01*
X61078019Y-74072579D01*
X60981153Y-73838724D01*
X60840525Y-73628260D01*
X60661540Y-73449275D01*
X60451076Y-73308647D01*
X60217221Y-73211781D01*
X59968961Y-73162400D01*
X59715839Y-73162400D01*
X59467579Y-73211781D01*
X59233724Y-73308647D01*
X59023260Y-73449275D01*
X58844275Y-73628260D01*
X58703647Y-73838724D01*
X58606781Y-74072579D01*
X58572400Y-74245427D01*
X58538019Y-74072579D01*
X58441153Y-73838724D01*
X58300525Y-73628260D01*
X58121540Y-73449275D01*
X57911076Y-73308647D01*
X57677221Y-73211781D01*
X57428961Y-73162400D01*
X57175839Y-73162400D01*
X56927579Y-73211781D01*
X56693724Y-73308647D01*
X56483260Y-73449275D01*
X56304275Y-73628260D01*
X56163647Y-73838724D01*
X56066781Y-74072579D01*
X56032400Y-74245427D01*
X55998019Y-74072579D01*
X55901153Y-73838724D01*
X55760525Y-73628260D01*
X55581540Y-73449275D01*
X55371076Y-73308647D01*
X55137221Y-73211781D01*
X54888961Y-73162400D01*
X54635839Y-73162400D01*
X54387579Y-73211781D01*
X54153724Y-73308647D01*
X53943260Y-73449275D01*
X53764275Y-73628260D01*
X53623647Y-73838724D01*
X53526781Y-74072579D01*
X53492400Y-74245427D01*
X53458019Y-74072579D01*
X53361153Y-73838724D01*
X53220525Y-73628260D01*
X53041540Y-73449275D01*
X52831076Y-73308647D01*
X52597221Y-73211781D01*
X52348961Y-73162400D01*
X52095839Y-73162400D01*
X51847579Y-73211781D01*
X51613724Y-73308647D01*
X51403260Y-73449275D01*
X51224275Y-73628260D01*
X51083647Y-73838724D01*
X50986781Y-74072579D01*
X50952400Y-74245427D01*
X50918019Y-74072579D01*
X50821153Y-73838724D01*
X50680525Y-73628260D01*
X50501540Y-73449275D01*
X50291076Y-73308647D01*
X50057221Y-73211781D01*
X49808961Y-73162400D01*
X49555839Y-73162400D01*
X49307579Y-73211781D01*
X49073724Y-73308647D01*
X48863260Y-73449275D01*
X48684275Y-73628260D01*
X48543647Y-73838724D01*
X48446781Y-74072579D01*
X48412400Y-74245427D01*
X48378019Y-74072579D01*
X48281153Y-73838724D01*
X48140525Y-73628260D01*
X47961540Y-73449275D01*
X47751076Y-73308647D01*
X47517221Y-73211781D01*
X47268961Y-73162400D01*
X47015839Y-73162400D01*
X46767579Y-73211781D01*
X46533724Y-73308647D01*
X46323260Y-73449275D01*
X46144275Y-73628260D01*
X46003647Y-73838724D01*
X45906781Y-74072579D01*
X45872400Y-74245427D01*
X45838019Y-74072579D01*
X45741153Y-73838724D01*
X45600525Y-73628260D01*
X45421540Y-73449275D01*
X45211076Y-73308647D01*
X44977221Y-73211781D01*
X44728961Y-73162400D01*
X44475839Y-73162400D01*
X44227579Y-73211781D01*
X43993724Y-73308647D01*
X43783260Y-73449275D01*
X43604275Y-73628260D01*
X43463647Y-73838724D01*
X43366781Y-74072579D01*
X43332400Y-74245427D01*
X43298019Y-74072579D01*
X43201153Y-73838724D01*
X43060525Y-73628260D01*
X42881540Y-73449275D01*
X42671076Y-73308647D01*
X42437221Y-73211781D01*
X42188961Y-73162400D01*
X41935839Y-73162400D01*
X41687579Y-73211781D01*
X41453724Y-73308647D01*
X41243260Y-73449275D01*
X41064275Y-73628260D01*
X40923647Y-73838724D01*
X40826781Y-74072579D01*
X40777400Y-74320839D01*
X40777400Y-74573961D01*
X40826781Y-74822221D01*
X40923647Y-75056076D01*
X41064275Y-75266540D01*
X41243260Y-75445525D01*
X41453724Y-75586153D01*
X41687579Y-75683019D01*
X41774438Y-75700296D01*
X41212400Y-75700296D01*
X41127125Y-75708695D01*
X41045128Y-75733569D01*
X40969558Y-75773961D01*
X40903321Y-75828321D01*
X40848961Y-75894558D01*
X40808569Y-75970128D01*
X40783695Y-76052125D01*
X40775296Y-76137400D01*
X39689429Y-76137400D01*
X39759015Y-75787571D01*
X39759015Y-75393229D01*
X39682082Y-75006463D01*
X39531174Y-74642138D01*
X39312089Y-74314254D01*
X39033246Y-74035411D01*
X38705362Y-73816326D01*
X38341037Y-73665418D01*
X37954271Y-73588485D01*
X37559929Y-73588485D01*
X37173163Y-73665418D01*
X36808838Y-73816326D01*
X36480954Y-74035411D01*
X36202111Y-74314254D01*
X36012906Y-74597420D01*
X36020610Y-72874771D01*
X61874640Y-72804566D01*
X62021055Y-87762790D01*
G36*
X48446781Y-77362221D02*
G01*
X48466943Y-77410897D01*
X48279922Y-77597919D01*
X48281153Y-77596076D01*
X48378019Y-77362221D01*
X48412400Y-77189373D01*
X48446781Y-77362221D01*
G37*
X48446781Y-77362221D02*
X48466943Y-77410897D01*
X48279922Y-77597919D01*
X48281153Y-77596076D01*
X48378019Y-77362221D01*
X48412400Y-77189373D01*
X48446781Y-77362221D01*
G36*
X56066781Y-74822221D02*
G01*
X56163647Y-75056076D01*
X56304275Y-75266540D01*
X56483260Y-75445525D01*
X56693724Y-75586153D01*
X56927579Y-75683019D01*
X57100427Y-75717400D01*
X56927579Y-75751781D01*
X56693724Y-75848647D01*
X56483260Y-75989275D01*
X56304275Y-76168260D01*
X56163647Y-76378724D01*
X56066781Y-76612579D01*
X56032400Y-76785427D01*
X55998019Y-76612579D01*
X55901153Y-76378724D01*
X55760525Y-76168260D01*
X55581540Y-75989275D01*
X55371076Y-75848647D01*
X55137221Y-75751781D01*
X54964373Y-75717400D01*
X55137221Y-75683019D01*
X55371076Y-75586153D01*
X55581540Y-75445525D01*
X55760525Y-75266540D01*
X55901153Y-75056076D01*
X55998019Y-74822221D01*
X56032400Y-74649373D01*
X56066781Y-74822221D01*
G37*
X56066781Y-74822221D02*
X56163647Y-75056076D01*
X56304275Y-75266540D01*
X56483260Y-75445525D01*
X56693724Y-75586153D01*
X56927579Y-75683019D01*
X57100427Y-75717400D01*
X56927579Y-75751781D01*
X56693724Y-75848647D01*
X56483260Y-75989275D01*
X56304275Y-76168260D01*
X56163647Y-76378724D01*
X56066781Y-76612579D01*
X56032400Y-76785427D01*
X55998019Y-76612579D01*
X55901153Y-76378724D01*
X55760525Y-76168260D01*
X55581540Y-75989275D01*
X55371076Y-75848647D01*
X55137221Y-75751781D01*
X54964373Y-75717400D01*
X55137221Y-75683019D01*
X55371076Y-75586153D01*
X55581540Y-75445525D01*
X55760525Y-75266540D01*
X55901153Y-75056076D01*
X55998019Y-74822221D01*
X56032400Y-74649373D01*
X56066781Y-74822221D01*
G36*
X45906781Y-74822221D02*
G01*
X46003647Y-75056076D01*
X46144275Y-75266540D01*
X46323260Y-75445525D01*
X46533724Y-75586153D01*
X46767579Y-75683019D01*
X46940427Y-75717400D01*
X46767579Y-75751781D01*
X46533724Y-75848647D01*
X46323260Y-75989275D01*
X46144275Y-76168260D01*
X46003647Y-76378724D01*
X45906781Y-76612579D01*
X45872400Y-76785427D01*
X45838019Y-76612579D01*
X45741153Y-76378724D01*
X45600525Y-76168260D01*
X45421540Y-75989275D01*
X45211076Y-75848647D01*
X44977221Y-75751781D01*
X44804373Y-75717400D01*
X44977221Y-75683019D01*
X45211076Y-75586153D01*
X45421540Y-75445525D01*
X45600525Y-75266540D01*
X45741153Y-75056076D01*
X45838019Y-74822221D01*
X45872400Y-74649373D01*
X45906781Y-74822221D01*
G37*
X45906781Y-74822221D02*
X46003647Y-75056076D01*
X46144275Y-75266540D01*
X46323260Y-75445525D01*
X46533724Y-75586153D01*
X46767579Y-75683019D01*
X46940427Y-75717400D01*
X46767579Y-75751781D01*
X46533724Y-75848647D01*
X46323260Y-75989275D01*
X46144275Y-76168260D01*
X46003647Y-76378724D01*
X45906781Y-76612579D01*
X45872400Y-76785427D01*
X45838019Y-76612579D01*
X45741153Y-76378724D01*
X45600525Y-76168260D01*
X45421540Y-75989275D01*
X45211076Y-75848647D01*
X44977221Y-75751781D01*
X44804373Y-75717400D01*
X44977221Y-75683019D01*
X45211076Y-75586153D01*
X45421540Y-75445525D01*
X45600525Y-75266540D01*
X45741153Y-75056076D01*
X45838019Y-74822221D01*
X45872400Y-74649373D01*
X45906781Y-74822221D01*
G36*
X48446781Y-74822221D02*
G01*
X48543647Y-75056076D01*
X48684275Y-75266540D01*
X48863260Y-75445525D01*
X49073724Y-75586153D01*
X49307579Y-75683019D01*
X49480427Y-75717400D01*
X49307579Y-75751781D01*
X49073724Y-75848647D01*
X48863260Y-75989275D01*
X48684275Y-76168260D01*
X48543647Y-76378724D01*
X48446781Y-76612579D01*
X48412400Y-76785427D01*
X48378019Y-76612579D01*
X48281153Y-76378724D01*
X48140525Y-76168260D01*
X47961540Y-75989275D01*
X47751076Y-75848647D01*
X47517221Y-75751781D01*
X47344373Y-75717400D01*
X47517221Y-75683019D01*
X47751076Y-75586153D01*
X47961540Y-75445525D01*
X48140525Y-75266540D01*
X48281153Y-75056076D01*
X48378019Y-74822221D01*
X48412400Y-74649373D01*
X48446781Y-74822221D01*
G37*
X48446781Y-74822221D02*
X48543647Y-75056076D01*
X48684275Y-75266540D01*
X48863260Y-75445525D01*
X49073724Y-75586153D01*
X49307579Y-75683019D01*
X49480427Y-75717400D01*
X49307579Y-75751781D01*
X49073724Y-75848647D01*
X48863260Y-75989275D01*
X48684275Y-76168260D01*
X48543647Y-76378724D01*
X48446781Y-76612579D01*
X48412400Y-76785427D01*
X48378019Y-76612579D01*
X48281153Y-76378724D01*
X48140525Y-76168260D01*
X47961540Y-75989275D01*
X47751076Y-75848647D01*
X47517221Y-75751781D01*
X47344373Y-75717400D01*
X47517221Y-75683019D01*
X47751076Y-75586153D01*
X47961540Y-75445525D01*
X48140525Y-75266540D01*
X48281153Y-75056076D01*
X48378019Y-74822221D01*
X48412400Y-74649373D01*
X48446781Y-74822221D01*
G36*
X58606781Y-74822221D02*
G01*
X58703647Y-75056076D01*
X58844275Y-75266540D01*
X59023260Y-75445525D01*
X59233724Y-75586153D01*
X59467579Y-75683019D01*
X59640427Y-75717400D01*
X59467579Y-75751781D01*
X59233724Y-75848647D01*
X59023260Y-75989275D01*
X58844275Y-76168260D01*
X58703647Y-76378724D01*
X58606781Y-76612579D01*
X58572400Y-76785427D01*
X58538019Y-76612579D01*
X58441153Y-76378724D01*
X58300525Y-76168260D01*
X58121540Y-75989275D01*
X57911076Y-75848647D01*
X57677221Y-75751781D01*
X57504373Y-75717400D01*
X57677221Y-75683019D01*
X57911076Y-75586153D01*
X58121540Y-75445525D01*
X58300525Y-75266540D01*
X58441153Y-75056076D01*
X58538019Y-74822221D01*
X58572400Y-74649373D01*
X58606781Y-74822221D01*
G37*
X58606781Y-74822221D02*
X58703647Y-75056076D01*
X58844275Y-75266540D01*
X59023260Y-75445525D01*
X59233724Y-75586153D01*
X59467579Y-75683019D01*
X59640427Y-75717400D01*
X59467579Y-75751781D01*
X59233724Y-75848647D01*
X59023260Y-75989275D01*
X58844275Y-76168260D01*
X58703647Y-76378724D01*
X58606781Y-76612579D01*
X58572400Y-76785427D01*
X58538019Y-76612579D01*
X58441153Y-76378724D01*
X58300525Y-76168260D01*
X58121540Y-75989275D01*
X57911076Y-75848647D01*
X57677221Y-75751781D01*
X57504373Y-75717400D01*
X57677221Y-75683019D01*
X57911076Y-75586153D01*
X58121540Y-75445525D01*
X58300525Y-75266540D01*
X58441153Y-75056076D01*
X58538019Y-74822221D01*
X58572400Y-74649373D01*
X58606781Y-74822221D01*
G36*
X50986781Y-74822221D02*
G01*
X51083647Y-75056076D01*
X51224275Y-75266540D01*
X51403260Y-75445525D01*
X51613724Y-75586153D01*
X51847579Y-75683019D01*
X52020427Y-75717400D01*
X51847579Y-75751781D01*
X51613724Y-75848647D01*
X51403260Y-75989275D01*
X51224275Y-76168260D01*
X51083647Y-76378724D01*
X50986781Y-76612579D01*
X50952400Y-76785427D01*
X50918019Y-76612579D01*
X50821153Y-76378724D01*
X50680525Y-76168260D01*
X50501540Y-75989275D01*
X50291076Y-75848647D01*
X50057221Y-75751781D01*
X49884373Y-75717400D01*
X50057221Y-75683019D01*
X50291076Y-75586153D01*
X50501540Y-75445525D01*
X50680525Y-75266540D01*
X50821153Y-75056076D01*
X50918019Y-74822221D01*
X50952400Y-74649373D01*
X50986781Y-74822221D01*
G37*
X50986781Y-74822221D02*
X51083647Y-75056076D01*
X51224275Y-75266540D01*
X51403260Y-75445525D01*
X51613724Y-75586153D01*
X51847579Y-75683019D01*
X52020427Y-75717400D01*
X51847579Y-75751781D01*
X51613724Y-75848647D01*
X51403260Y-75989275D01*
X51224275Y-76168260D01*
X51083647Y-76378724D01*
X50986781Y-76612579D01*
X50952400Y-76785427D01*
X50918019Y-76612579D01*
X50821153Y-76378724D01*
X50680525Y-76168260D01*
X50501540Y-75989275D01*
X50291076Y-75848647D01*
X50057221Y-75751781D01*
X49884373Y-75717400D01*
X50057221Y-75683019D01*
X50291076Y-75586153D01*
X50501540Y-75445525D01*
X50680525Y-75266540D01*
X50821153Y-75056076D01*
X50918019Y-74822221D01*
X50952400Y-74649373D01*
X50986781Y-74822221D01*
G36*
X53526781Y-74822221D02*
G01*
X53623647Y-75056076D01*
X53764275Y-75266540D01*
X53943260Y-75445525D01*
X54153724Y-75586153D01*
X54387579Y-75683019D01*
X54560427Y-75717400D01*
X54387579Y-75751781D01*
X54153724Y-75848647D01*
X53943260Y-75989275D01*
X53764275Y-76168260D01*
X53623647Y-76378724D01*
X53526781Y-76612579D01*
X53492400Y-76785427D01*
X53458019Y-76612579D01*
X53361153Y-76378724D01*
X53220525Y-76168260D01*
X53041540Y-75989275D01*
X52831076Y-75848647D01*
X52597221Y-75751781D01*
X52424373Y-75717400D01*
X52597221Y-75683019D01*
X52831076Y-75586153D01*
X53041540Y-75445525D01*
X53220525Y-75266540D01*
X53361153Y-75056076D01*
X53458019Y-74822221D01*
X53492400Y-74649373D01*
X53526781Y-74822221D01*
G37*
X53526781Y-74822221D02*
X53623647Y-75056076D01*
X53764275Y-75266540D01*
X53943260Y-75445525D01*
X54153724Y-75586153D01*
X54387579Y-75683019D01*
X54560427Y-75717400D01*
X54387579Y-75751781D01*
X54153724Y-75848647D01*
X53943260Y-75989275D01*
X53764275Y-76168260D01*
X53623647Y-76378724D01*
X53526781Y-76612579D01*
X53492400Y-76785427D01*
X53458019Y-76612579D01*
X53361153Y-76378724D01*
X53220525Y-76168260D01*
X53041540Y-75989275D01*
X52831076Y-75848647D01*
X52597221Y-75751781D01*
X52424373Y-75717400D01*
X52597221Y-75683019D01*
X52831076Y-75586153D01*
X53041540Y-75445525D01*
X53220525Y-75266540D01*
X53361153Y-75056076D01*
X53458019Y-74822221D01*
X53492400Y-74649373D01*
X53526781Y-74822221D01*
G36*
X43366781Y-74822221D02*
G01*
X43463647Y-75056076D01*
X43604275Y-75266540D01*
X43783260Y-75445525D01*
X43993724Y-75586153D01*
X44227579Y-75683019D01*
X44400427Y-75717400D01*
X44227579Y-75751781D01*
X43993724Y-75848647D01*
X43783260Y-75989275D01*
X43604275Y-76168260D01*
X43463647Y-76378724D01*
X43366781Y-76612579D01*
X43349504Y-76699438D01*
X43349504Y-76137400D01*
X43341105Y-76052125D01*
X43316231Y-75970128D01*
X43275839Y-75894558D01*
X43221479Y-75828321D01*
X43155242Y-75773961D01*
X43079672Y-75733569D01*
X42997675Y-75708695D01*
X42912400Y-75700296D01*
X42350362Y-75700296D01*
X42437221Y-75683019D01*
X42671076Y-75586153D01*
X42881540Y-75445525D01*
X43060525Y-75266540D01*
X43201153Y-75056076D01*
X43298019Y-74822221D01*
X43332400Y-74649373D01*
X43366781Y-74822221D01*
G37*
X43366781Y-74822221D02*
X43463647Y-75056076D01*
X43604275Y-75266540D01*
X43783260Y-75445525D01*
X43993724Y-75586153D01*
X44227579Y-75683019D01*
X44400427Y-75717400D01*
X44227579Y-75751781D01*
X43993724Y-75848647D01*
X43783260Y-75989275D01*
X43604275Y-76168260D01*
X43463647Y-76378724D01*
X43366781Y-76612579D01*
X43349504Y-76699438D01*
X43349504Y-76137400D01*
X43341105Y-76052125D01*
X43316231Y-75970128D01*
X43275839Y-75894558D01*
X43221479Y-75828321D01*
X43155242Y-75773961D01*
X43079672Y-75733569D01*
X42997675Y-75708695D01*
X42912400Y-75700296D01*
X42350362Y-75700296D01*
X42437221Y-75683019D01*
X42671076Y-75586153D01*
X42881540Y-75445525D01*
X43060525Y-75266540D01*
X43201153Y-75056076D01*
X43298019Y-74822221D01*
X43332400Y-74649373D01*
X43366781Y-74822221D01*
M02*
