G04 #@! TF.GenerationSoftware,KiCad,Pcbnew,(5.1.5)-3*
G04 #@! TF.CreationDate,2020-11-10T12:23:10+03:00*
G04 #@! TF.ProjectId,rasphat_proj2,72617370-6861-4745-9f70-726f6a322e6b,rev?*
G04 #@! TF.SameCoordinates,Original*
G04 #@! TF.FileFunction,Legend,Bot*
G04 #@! TF.FilePolarity,Positive*
%FSLAX46Y46*%
G04 Gerber Fmt 4.6, Leading zero omitted, Abs format (unit mm)*
G04 Created by KiCad (PCBNEW (5.1.5)-3) date 2020-11-10 12:23:10*
%MOMM*%
%LPD*%
G04 APERTURE LIST*
%ADD10C,0.125000*%
%ADD11C,0.010000*%
G04 APERTURE END LIST*
D10*
X48650688Y-86204285D02*
X48582236Y-86228095D01*
X48561402Y-86251904D01*
X48543545Y-86299523D01*
X48552474Y-86370952D01*
X48582236Y-86418571D01*
X48609022Y-86442380D01*
X48659617Y-86466190D01*
X48850093Y-86466190D01*
X48787593Y-85966190D01*
X48620926Y-85966190D01*
X48576283Y-85990000D01*
X48555450Y-86013809D01*
X48537593Y-86061428D01*
X48543545Y-86109047D01*
X48573307Y-86156666D01*
X48600093Y-86180476D01*
X48650688Y-86204285D01*
X48817355Y-86204285D01*
X48094141Y-86132857D02*
X48135807Y-86466190D01*
X48308426Y-86132857D02*
X48341164Y-86394761D01*
X48323307Y-86442380D01*
X48278664Y-86466190D01*
X48207236Y-86466190D01*
X48156641Y-86442380D01*
X48129855Y-86418571D01*
X47927474Y-86132857D02*
X47736998Y-86132857D01*
X47835212Y-85966190D02*
X47888783Y-86394761D01*
X47870926Y-86442380D01*
X47826283Y-86466190D01*
X47778664Y-86466190D01*
X47641760Y-86132857D02*
X47451283Y-86132857D01*
X47549498Y-85966190D02*
X47603069Y-86394761D01*
X47585212Y-86442380D01*
X47540569Y-86466190D01*
X47492950Y-86466190D01*
X47254855Y-86466190D02*
X47299498Y-86442380D01*
X47320331Y-86418571D01*
X47338188Y-86370952D01*
X47320331Y-86228095D01*
X47290569Y-86180476D01*
X47263783Y-86156666D01*
X47213188Y-86132857D01*
X47141760Y-86132857D01*
X47097117Y-86156666D01*
X47076283Y-86180476D01*
X47058426Y-86228095D01*
X47076283Y-86370952D01*
X47106045Y-86418571D01*
X47132831Y-86442380D01*
X47183426Y-86466190D01*
X47254855Y-86466190D01*
X46832236Y-86132857D02*
X46873902Y-86466190D01*
X46838188Y-86180476D02*
X46811402Y-86156666D01*
X46760807Y-86132857D01*
X46689379Y-86132857D01*
X46644736Y-86156666D01*
X46626879Y-86204285D01*
X46659617Y-86466190D01*
X46415569Y-86418571D02*
X46394736Y-86442380D01*
X46421522Y-86466190D01*
X46442355Y-86442380D01*
X46415569Y-86418571D01*
X46421522Y-86466190D01*
X46382831Y-86156666D02*
X46361998Y-86180476D01*
X46388783Y-86204285D01*
X46409617Y-86180476D01*
X46382831Y-86156666D01*
X46388783Y-86204285D01*
X45481045Y-85990000D02*
X45525688Y-85966190D01*
X45597117Y-85966190D01*
X45671522Y-85990000D01*
X45725093Y-86037619D01*
X45754855Y-86085238D01*
X45790569Y-86180476D01*
X45799498Y-86251904D01*
X45787593Y-86347142D01*
X45769736Y-86394761D01*
X45728069Y-86442380D01*
X45659617Y-86466190D01*
X45611998Y-86466190D01*
X45537593Y-86442380D01*
X45510807Y-86418571D01*
X45489974Y-86251904D01*
X45585212Y-86251904D01*
X45302474Y-86466190D02*
X45239974Y-85966190D01*
X45049498Y-85966190D01*
X45004855Y-85990000D01*
X44984022Y-86013809D01*
X44966164Y-86061428D01*
X44975093Y-86132857D01*
X45004855Y-86180476D01*
X45031641Y-86204285D01*
X45082236Y-86228095D01*
X45272712Y-86228095D01*
X44802474Y-86466190D02*
X44739974Y-85966190D01*
X44406641Y-85966190D02*
X44311402Y-85966190D01*
X44266760Y-85990000D01*
X44225093Y-86037619D01*
X44213188Y-86132857D01*
X44234022Y-86299523D01*
X44269736Y-86394761D01*
X44323307Y-86442380D01*
X44373902Y-86466190D01*
X44469141Y-86466190D01*
X44513783Y-86442380D01*
X44555450Y-86394761D01*
X44567355Y-86299523D01*
X44546522Y-86132857D01*
X44510807Y-86037619D01*
X44457236Y-85990000D01*
X44406641Y-85966190D01*
X43778664Y-86466190D02*
X44064379Y-86466190D01*
X43921522Y-86466190D02*
X43859022Y-85966190D01*
X43915569Y-86037619D01*
X43969141Y-86085238D01*
X44019736Y-86109047D01*
X43308426Y-86132857D02*
X43350093Y-86466190D01*
X43403664Y-85942380D02*
X43567355Y-86299523D01*
X43257831Y-86299523D01*
X47064379Y-87341190D02*
X47302474Y-87341190D01*
X47239974Y-86841190D01*
X46864974Y-87079285D02*
X46698307Y-87079285D01*
X46659617Y-87341190D02*
X46897712Y-87341190D01*
X46835212Y-86841190D01*
X46597117Y-86841190D01*
X46445331Y-87341190D02*
X46382831Y-86841190D01*
X46263783Y-86841190D01*
X46195331Y-86865000D01*
X46153664Y-86912619D01*
X46135807Y-86960238D01*
X46123902Y-87055476D01*
X46132831Y-87126904D01*
X46168545Y-87222142D01*
X46198307Y-87269761D01*
X46251879Y-87317380D01*
X46326283Y-87341190D01*
X46445331Y-87341190D01*
X45939379Y-87293571D02*
X45918545Y-87317380D01*
X45945331Y-87341190D01*
X45966164Y-87317380D01*
X45939379Y-87293571D01*
X45945331Y-87341190D01*
X45906641Y-87031666D02*
X45885807Y-87055476D01*
X45912593Y-87079285D01*
X45933426Y-87055476D01*
X45906641Y-87031666D01*
X45912593Y-87079285D01*
X45004855Y-86865000D02*
X45049498Y-86841190D01*
X45120926Y-86841190D01*
X45195331Y-86865000D01*
X45248902Y-86912619D01*
X45278664Y-86960238D01*
X45314379Y-87055476D01*
X45323307Y-87126904D01*
X45311402Y-87222142D01*
X45293545Y-87269761D01*
X45251879Y-87317380D01*
X45183426Y-87341190D01*
X45135807Y-87341190D01*
X45061402Y-87317380D01*
X45034617Y-87293571D01*
X45013783Y-87126904D01*
X45109022Y-87126904D01*
X44826283Y-87341190D02*
X44763783Y-86841190D01*
X44573307Y-86841190D01*
X44528664Y-86865000D01*
X44507831Y-86888809D01*
X44489974Y-86936428D01*
X44498902Y-87007857D01*
X44528664Y-87055476D01*
X44555450Y-87079285D01*
X44606045Y-87103095D01*
X44796522Y-87103095D01*
X44326283Y-87341190D02*
X44263783Y-86841190D01*
X43930450Y-86841190D02*
X43835212Y-86841190D01*
X43790569Y-86865000D01*
X43748902Y-86912619D01*
X43736998Y-87007857D01*
X43757831Y-87174523D01*
X43793545Y-87269761D01*
X43847117Y-87317380D01*
X43897712Y-87341190D01*
X43992950Y-87341190D01*
X44037593Y-87317380D01*
X44079260Y-87269761D01*
X44091164Y-87174523D01*
X44070331Y-87007857D01*
X44034617Y-86912619D01*
X43981045Y-86865000D01*
X43930450Y-86841190D01*
X43308426Y-87007857D02*
X43350093Y-87341190D01*
X43403664Y-86817380D02*
X43567355Y-87174523D01*
X43257831Y-87174523D01*
X61245278Y-83079133D02*
X61007183Y-83079133D01*
X61310754Y-83221990D02*
X61081588Y-82721990D01*
X60977421Y-83221990D01*
X60810754Y-83221990D02*
X60769088Y-82888657D01*
X60780992Y-82983895D02*
X60751230Y-82936276D01*
X60724445Y-82912466D01*
X60673850Y-82888657D01*
X60626230Y-82888657D01*
X60429802Y-83221990D02*
X60474445Y-83198180D01*
X60495278Y-83174371D01*
X60513135Y-83126752D01*
X60495278Y-82983895D01*
X60465516Y-82936276D01*
X60438730Y-82912466D01*
X60388135Y-82888657D01*
X60316707Y-82888657D01*
X60272064Y-82912466D01*
X60251230Y-82936276D01*
X60233373Y-82983895D01*
X60251230Y-83126752D01*
X60280992Y-83174371D01*
X60307778Y-83198180D01*
X60358373Y-83221990D01*
X60429802Y-83221990D01*
X60007183Y-82888657D02*
X60048850Y-83221990D01*
X60013135Y-82936276D02*
X59986350Y-82912466D01*
X59935754Y-82888657D01*
X59864326Y-82888657D01*
X59819683Y-82912466D01*
X59801826Y-82960085D01*
X59834564Y-83221990D01*
X59221469Y-83079133D02*
X58983373Y-83079133D01*
X59286945Y-83221990D02*
X59057778Y-82721990D01*
X58953611Y-83221990D01*
X58792897Y-82888657D02*
X58715516Y-83221990D01*
X58554802Y-82888657D02*
X58715516Y-83221990D01*
X58778016Y-83341038D01*
X58804802Y-83364847D01*
X58855397Y-83388657D01*
X58150040Y-82888657D02*
X58191707Y-83221990D01*
X58364326Y-82888657D02*
X58397064Y-83150561D01*
X58379207Y-83198180D01*
X58334564Y-83221990D01*
X58263135Y-83221990D01*
X58212540Y-83198180D01*
X58185754Y-83174371D01*
X57953611Y-83221990D02*
X57891111Y-82721990D01*
X57914921Y-82912466D02*
X57864326Y-82888657D01*
X57769088Y-82888657D01*
X57724445Y-82912466D01*
X57703611Y-82936276D01*
X57685754Y-82983895D01*
X57703611Y-83126752D01*
X57733373Y-83174371D01*
X57760159Y-83198180D01*
X57810754Y-83221990D01*
X57905992Y-83221990D01*
X57950635Y-83198180D01*
X61045873Y-84073180D02*
X61096469Y-84096990D01*
X61191707Y-84096990D01*
X61236350Y-84073180D01*
X61254207Y-84025561D01*
X61230397Y-83835085D01*
X61200635Y-83787466D01*
X61150040Y-83763657D01*
X61054802Y-83763657D01*
X61010159Y-83787466D01*
X60992302Y-83835085D01*
X60998254Y-83882704D01*
X61242302Y-83930323D01*
X60769088Y-83763657D02*
X60810754Y-84096990D01*
X60775040Y-83811276D02*
X60748254Y-83787466D01*
X60697659Y-83763657D01*
X60626230Y-83763657D01*
X60581588Y-83787466D01*
X60563730Y-83835085D01*
X60596469Y-84096990D01*
X60102421Y-83763657D02*
X60153016Y-84168419D01*
X60182778Y-84216038D01*
X60209564Y-84239847D01*
X60260159Y-84263657D01*
X60331588Y-84263657D01*
X60376230Y-84239847D01*
X60141111Y-84073180D02*
X60191707Y-84096990D01*
X60286945Y-84096990D01*
X60331588Y-84073180D01*
X60352421Y-84049371D01*
X60370278Y-84001752D01*
X60352421Y-83858895D01*
X60322659Y-83811276D01*
X60295873Y-83787466D01*
X60245278Y-83763657D01*
X60150040Y-83763657D01*
X60105397Y-83787466D01*
X59691707Y-84096990D02*
X59658969Y-83835085D01*
X59676826Y-83787466D01*
X59721469Y-83763657D01*
X59816707Y-83763657D01*
X59867302Y-83787466D01*
X59688730Y-84073180D02*
X59739326Y-84096990D01*
X59858373Y-84096990D01*
X59903016Y-84073180D01*
X59920873Y-84025561D01*
X59914921Y-83977942D01*
X59885159Y-83930323D01*
X59834564Y-83906514D01*
X59715516Y-83906514D01*
X59664921Y-83882704D01*
X59453611Y-84096990D02*
X59411945Y-83763657D01*
X59423850Y-83858895D02*
X59394088Y-83811276D01*
X59367302Y-83787466D01*
X59316707Y-83763657D01*
X59269088Y-83763657D01*
X59072659Y-84096990D02*
X59117302Y-84073180D01*
X59138135Y-84049371D01*
X59155992Y-84001752D01*
X59138135Y-83858895D01*
X59108373Y-83811276D01*
X59081588Y-83787466D01*
X59030992Y-83763657D01*
X58959564Y-83763657D01*
X58914921Y-83787466D01*
X58894088Y-83811276D01*
X58876230Y-83858895D01*
X58894088Y-84001752D01*
X58923850Y-84049371D01*
X58950635Y-84073180D01*
X59001230Y-84096990D01*
X59072659Y-84096990D01*
X58650040Y-83763657D02*
X58691707Y-84096990D01*
X58655992Y-83811276D02*
X58629207Y-83787466D01*
X58578611Y-83763657D01*
X58507183Y-83763657D01*
X58462540Y-83787466D01*
X58444683Y-83835085D01*
X58477421Y-84096990D01*
X58132183Y-83811276D02*
X58176826Y-83787466D01*
X58197659Y-83763657D01*
X58215516Y-83716038D01*
X58212540Y-83692228D01*
X58182778Y-83644609D01*
X58155992Y-83620800D01*
X58105397Y-83596990D01*
X58010159Y-83596990D01*
X57965516Y-83620800D01*
X57944683Y-83644609D01*
X57926826Y-83692228D01*
X57929802Y-83716038D01*
X57959564Y-83763657D01*
X57986350Y-83787466D01*
X58036945Y-83811276D01*
X58132183Y-83811276D01*
X58182778Y-83835085D01*
X58209564Y-83858895D01*
X58239326Y-83906514D01*
X58251230Y-84001752D01*
X58233373Y-84049371D01*
X58212540Y-84073180D01*
X58167897Y-84096990D01*
X58072659Y-84096990D01*
X58022064Y-84073180D01*
X57995278Y-84049371D01*
X57965516Y-84001752D01*
X57953611Y-83906514D01*
X57971469Y-83858895D01*
X57992302Y-83835085D01*
X58036945Y-83811276D01*
X57423850Y-83858895D02*
X57444683Y-83835085D01*
X57489326Y-83811276D01*
X57536945Y-83811276D01*
X57587540Y-83835085D01*
X57614326Y-83858895D01*
X57644088Y-83906514D01*
X57650040Y-83954133D01*
X57632183Y-84001752D01*
X57611350Y-84025561D01*
X57566707Y-84049371D01*
X57519088Y-84049371D01*
X57468492Y-84025561D01*
X57441707Y-84001752D01*
X57417897Y-83811276D02*
X57441707Y-84001752D01*
X57420873Y-84025561D01*
X57397064Y-84025561D01*
X57346469Y-84001752D01*
X57316707Y-83954133D01*
X57301826Y-83835085D01*
X57340516Y-83763657D01*
X57405992Y-83716038D01*
X57498254Y-83692228D01*
X57596469Y-83716038D01*
X57673850Y-83763657D01*
X57730397Y-83835085D01*
X57766111Y-83930323D01*
X57754207Y-84025561D01*
X57715516Y-84096990D01*
X57650040Y-84144609D01*
X57557778Y-84168419D01*
X57459564Y-84144609D01*
X57382183Y-84096990D01*
X56864326Y-83763657D02*
X56914921Y-84168419D01*
X56944683Y-84216038D01*
X56971469Y-84239847D01*
X57022064Y-84263657D01*
X57093492Y-84263657D01*
X57138135Y-84239847D01*
X56903016Y-84073180D02*
X56953611Y-84096990D01*
X57048850Y-84096990D01*
X57093492Y-84073180D01*
X57114326Y-84049371D01*
X57132183Y-84001752D01*
X57114326Y-83858895D01*
X57084564Y-83811276D01*
X57057778Y-83787466D01*
X57007183Y-83763657D01*
X56911945Y-83763657D01*
X56867302Y-83787466D01*
X56667897Y-84096990D02*
X56626230Y-83763657D01*
X56632183Y-83811276D02*
X56605397Y-83787466D01*
X56554802Y-83763657D01*
X56483373Y-83763657D01*
X56438730Y-83787466D01*
X56420873Y-83835085D01*
X56453611Y-84096990D01*
X56420873Y-83835085D02*
X56391111Y-83787466D01*
X56340516Y-83763657D01*
X56269088Y-83763657D01*
X56224445Y-83787466D01*
X56206588Y-83835085D01*
X56239326Y-84096990D01*
X55786945Y-84096990D02*
X55754207Y-83835085D01*
X55772064Y-83787466D01*
X55816707Y-83763657D01*
X55911945Y-83763657D01*
X55962540Y-83787466D01*
X55783969Y-84073180D02*
X55834564Y-84096990D01*
X55953611Y-84096990D01*
X55998254Y-84073180D01*
X56016111Y-84025561D01*
X56010159Y-83977942D01*
X55980397Y-83930323D01*
X55929802Y-83906514D01*
X55810754Y-83906514D01*
X55760159Y-83882704D01*
X55548850Y-84096990D02*
X55507183Y-83763657D01*
X55486350Y-83596990D02*
X55513135Y-83620800D01*
X55492302Y-83644609D01*
X55465516Y-83620800D01*
X55486350Y-83596990D01*
X55492302Y-83644609D01*
X55239326Y-84096990D02*
X55283969Y-84073180D01*
X55301826Y-84025561D01*
X55248254Y-83596990D01*
X55042897Y-84049371D02*
X55022064Y-84073180D01*
X55048850Y-84096990D01*
X55069683Y-84073180D01*
X55042897Y-84049371D01*
X55048850Y-84096990D01*
X54593492Y-84073180D02*
X54644088Y-84096990D01*
X54739326Y-84096990D01*
X54783969Y-84073180D01*
X54804802Y-84049371D01*
X54822659Y-84001752D01*
X54804802Y-83858895D01*
X54775040Y-83811276D01*
X54748254Y-83787466D01*
X54697659Y-83763657D01*
X54602421Y-83763657D01*
X54557778Y-83787466D01*
X54310754Y-84096990D02*
X54355397Y-84073180D01*
X54376230Y-84049371D01*
X54394088Y-84001752D01*
X54376230Y-83858895D01*
X54346469Y-83811276D01*
X54319683Y-83787466D01*
X54269088Y-83763657D01*
X54197659Y-83763657D01*
X54153016Y-83787466D01*
X54132183Y-83811276D01*
X54114326Y-83858895D01*
X54132183Y-84001752D01*
X54161945Y-84049371D01*
X54188730Y-84073180D01*
X54239326Y-84096990D01*
X54310754Y-84096990D01*
X53929802Y-84096990D02*
X53888135Y-83763657D01*
X53894088Y-83811276D02*
X53867302Y-83787466D01*
X53816707Y-83763657D01*
X53745278Y-83763657D01*
X53700635Y-83787466D01*
X53682778Y-83835085D01*
X53715516Y-84096990D01*
X53682778Y-83835085D02*
X53653016Y-83787466D01*
X53602421Y-83763657D01*
X53530992Y-83763657D01*
X53486350Y-83787466D01*
X53468492Y-83835085D01*
X53501230Y-84096990D01*
X61081588Y-84471990D02*
X61033969Y-84471990D01*
X60989326Y-84495800D01*
X60968492Y-84519609D01*
X60950635Y-84567228D01*
X60938730Y-84662466D01*
X60953611Y-84781514D01*
X60989326Y-84876752D01*
X61019088Y-84924371D01*
X61045873Y-84948180D01*
X61096469Y-84971990D01*
X61144088Y-84971990D01*
X61188730Y-84948180D01*
X61209564Y-84924371D01*
X61227421Y-84876752D01*
X61239326Y-84781514D01*
X61224445Y-84662466D01*
X61188730Y-84567228D01*
X61158969Y-84519609D01*
X61132183Y-84495800D01*
X61081588Y-84471990D01*
X60748254Y-84471990D02*
X60414921Y-84471990D01*
X60691707Y-84971990D01*
X60129207Y-84471990D02*
X60081588Y-84471990D01*
X60036945Y-84495800D01*
X60016111Y-84519609D01*
X59998254Y-84567228D01*
X59986350Y-84662466D01*
X60001230Y-84781514D01*
X60036945Y-84876752D01*
X60066707Y-84924371D01*
X60093492Y-84948180D01*
X60144088Y-84971990D01*
X60191707Y-84971990D01*
X60236350Y-84948180D01*
X60257183Y-84924371D01*
X60275040Y-84876752D01*
X60286945Y-84781514D01*
X60272064Y-84662466D01*
X60236350Y-84567228D01*
X60206588Y-84519609D01*
X60179802Y-84495800D01*
X60129207Y-84471990D01*
X59795873Y-84471990D02*
X59486350Y-84471990D01*
X59676826Y-84662466D01*
X59605397Y-84662466D01*
X59560754Y-84686276D01*
X59539921Y-84710085D01*
X59522064Y-84757704D01*
X59536945Y-84876752D01*
X59566707Y-84924371D01*
X59593492Y-84948180D01*
X59644088Y-84971990D01*
X59786945Y-84971990D01*
X59831588Y-84948180D01*
X59852421Y-84924371D01*
X59310754Y-84971990D02*
X59215516Y-84971990D01*
X59164921Y-84948180D01*
X59138135Y-84924371D01*
X59081588Y-84852942D01*
X59045873Y-84757704D01*
X59022064Y-84567228D01*
X59039921Y-84519609D01*
X59060754Y-84495800D01*
X59105397Y-84471990D01*
X59200635Y-84471990D01*
X59251230Y-84495800D01*
X59278016Y-84519609D01*
X59307778Y-84567228D01*
X59322659Y-84686276D01*
X59304802Y-84733895D01*
X59283969Y-84757704D01*
X59239326Y-84781514D01*
X59144088Y-84781514D01*
X59093492Y-84757704D01*
X59066707Y-84733895D01*
X59036945Y-84686276D01*
X58700635Y-84471990D02*
X58653016Y-84471990D01*
X58608373Y-84495800D01*
X58587540Y-84519609D01*
X58569683Y-84567228D01*
X58557778Y-84662466D01*
X58572659Y-84781514D01*
X58608373Y-84876752D01*
X58638135Y-84924371D01*
X58664921Y-84948180D01*
X58715516Y-84971990D01*
X58763135Y-84971990D01*
X58807778Y-84948180D01*
X58828611Y-84924371D01*
X58846469Y-84876752D01*
X58858373Y-84781514D01*
X58843492Y-84662466D01*
X58807778Y-84567228D01*
X58778016Y-84519609D01*
X58751230Y-84495800D01*
X58700635Y-84471990D01*
X58358373Y-84971990D02*
X58263135Y-84971990D01*
X58212540Y-84948180D01*
X58185754Y-84924371D01*
X58129207Y-84852942D01*
X58093492Y-84757704D01*
X58069683Y-84567228D01*
X58087540Y-84519609D01*
X58108373Y-84495800D01*
X58153016Y-84471990D01*
X58248254Y-84471990D01*
X58298850Y-84495800D01*
X58325635Y-84519609D01*
X58355397Y-84567228D01*
X58370278Y-84686276D01*
X58352421Y-84733895D01*
X58331588Y-84757704D01*
X58286945Y-84781514D01*
X58191707Y-84781514D01*
X58141111Y-84757704D01*
X58114326Y-84733895D01*
X58084564Y-84686276D01*
X57605397Y-84471990D02*
X57843492Y-84471990D01*
X57897064Y-84710085D01*
X57870278Y-84686276D01*
X57819683Y-84662466D01*
X57700635Y-84662466D01*
X57655992Y-84686276D01*
X57635159Y-84710085D01*
X57617302Y-84757704D01*
X57632183Y-84876752D01*
X57661945Y-84924371D01*
X57688730Y-84948180D01*
X57739326Y-84971990D01*
X57858373Y-84971990D01*
X57903016Y-84948180D01*
X57923850Y-84924371D01*
X57153016Y-84471990D02*
X57248254Y-84471990D01*
X57298850Y-84495800D01*
X57325635Y-84519609D01*
X57382183Y-84591038D01*
X57417897Y-84686276D01*
X57441707Y-84876752D01*
X57423850Y-84924371D01*
X57403016Y-84948180D01*
X57358373Y-84971990D01*
X57263135Y-84971990D01*
X57212540Y-84948180D01*
X57185754Y-84924371D01*
X57155992Y-84876752D01*
X57141111Y-84757704D01*
X57158969Y-84710085D01*
X57179802Y-84686276D01*
X57224445Y-84662466D01*
X57319683Y-84662466D01*
X57370278Y-84686276D01*
X57397064Y-84710085D01*
X57426826Y-84757704D01*
X56938730Y-84471990D02*
X56605397Y-84471990D01*
X56882183Y-84971990D01*
D11*
G36*
X53530243Y-77747771D02*
G01*
X53433968Y-77772009D01*
X53347384Y-77814841D01*
X53272573Y-77874619D01*
X53211618Y-77949694D01*
X53166599Y-78038420D01*
X53140336Y-78134730D01*
X53134486Y-78231995D01*
X53149340Y-78325854D01*
X53183040Y-78413711D01*
X53233728Y-78492970D01*
X53299545Y-78561036D01*
X53378634Y-78615312D01*
X53469134Y-78653202D01*
X53520400Y-78665626D01*
X53564898Y-78673147D01*
X53599199Y-78676119D01*
X53632160Y-78674294D01*
X53672634Y-78667425D01*
X53705731Y-78660450D01*
X53799147Y-78628941D01*
X53882819Y-78577817D01*
X53954865Y-78508629D01*
X54013400Y-78422928D01*
X54027348Y-78395689D01*
X54043786Y-78359322D01*
X54054094Y-78328782D01*
X54059660Y-78296650D01*
X54061869Y-78255507D01*
X54062148Y-78209422D01*
X54058061Y-78125065D01*
X54044646Y-78055786D01*
X54019456Y-77995161D01*
X53980046Y-77936767D01*
X53941498Y-77892502D01*
X53869606Y-77826684D01*
X53794513Y-77781253D01*
X53711762Y-77754050D01*
X53634128Y-77743776D01*
X53530243Y-77747771D01*
G37*
X53530243Y-77747771D02*
X53433968Y-77772009D01*
X53347384Y-77814841D01*
X53272573Y-77874619D01*
X53211618Y-77949694D01*
X53166599Y-78038420D01*
X53140336Y-78134730D01*
X53134486Y-78231995D01*
X53149340Y-78325854D01*
X53183040Y-78413711D01*
X53233728Y-78492970D01*
X53299545Y-78561036D01*
X53378634Y-78615312D01*
X53469134Y-78653202D01*
X53520400Y-78665626D01*
X53564898Y-78673147D01*
X53599199Y-78676119D01*
X53632160Y-78674294D01*
X53672634Y-78667425D01*
X53705731Y-78660450D01*
X53799147Y-78628941D01*
X53882819Y-78577817D01*
X53954865Y-78508629D01*
X54013400Y-78422928D01*
X54027348Y-78395689D01*
X54043786Y-78359322D01*
X54054094Y-78328782D01*
X54059660Y-78296650D01*
X54061869Y-78255507D01*
X54062148Y-78209422D01*
X54058061Y-78125065D01*
X54044646Y-78055786D01*
X54019456Y-77995161D01*
X53980046Y-77936767D01*
X53941498Y-77892502D01*
X53869606Y-77826684D01*
X53794513Y-77781253D01*
X53711762Y-77754050D01*
X53634128Y-77743776D01*
X53530243Y-77747771D01*
G36*
X45070693Y-80193445D02*
G01*
X45070674Y-80427862D01*
X45070648Y-80640803D01*
X45070575Y-80833368D01*
X45070418Y-81006659D01*
X45070136Y-81161776D01*
X45069691Y-81299820D01*
X45069044Y-81421892D01*
X45068155Y-81529094D01*
X45066987Y-81622526D01*
X45065499Y-81703290D01*
X45063654Y-81772486D01*
X45061411Y-81831215D01*
X45058731Y-81880579D01*
X45055577Y-81921678D01*
X45051908Y-81955613D01*
X45047687Y-81983486D01*
X45042873Y-82006398D01*
X45037427Y-82025449D01*
X45031312Y-82041740D01*
X45024488Y-82056373D01*
X45016915Y-82070449D01*
X45008555Y-82085068D01*
X45003361Y-82094174D01*
X44969096Y-82154889D01*
X45827245Y-82154889D01*
X45827245Y-82058933D01*
X45827976Y-82015570D01*
X45829928Y-81982405D01*
X45832737Y-81964624D01*
X45833979Y-81962978D01*
X45845401Y-81969862D01*
X45868116Y-81987705D01*
X45890815Y-82007079D01*
X45945400Y-82047814D01*
X46014879Y-82088817D01*
X46091930Y-82126323D01*
X46169235Y-82156564D01*
X46200087Y-82166212D01*
X46268584Y-82180778D01*
X46351436Y-82190739D01*
X46440829Y-82195783D01*
X46528952Y-82195596D01*
X46607993Y-82189866D01*
X46645689Y-82184058D01*
X46783786Y-82145997D01*
X46911087Y-82088273D01*
X47026908Y-82011411D01*
X47130563Y-81915939D01*
X47221367Y-81802379D01*
X47288169Y-81691581D01*
X47343036Y-81574825D01*
X47385037Y-81455476D01*
X47415033Y-81329483D01*
X47433889Y-81192794D01*
X47442468Y-81041358D01*
X47443194Y-80963911D01*
X47441100Y-80907134D01*
X46611983Y-80907134D01*
X46611776Y-81000202D01*
X46608863Y-81087892D01*
X46603200Y-81164972D01*
X46594745Y-81226209D01*
X46592162Y-81238550D01*
X46560360Y-81345833D01*
X46518702Y-81432858D01*
X46466837Y-81499842D01*
X46404419Y-81547005D01*
X46331100Y-81574565D01*
X46246531Y-81582741D01*
X46150365Y-81571751D01*
X46086889Y-81556029D01*
X46037746Y-81537839D01*
X45983617Y-81511991D01*
X45942956Y-81488289D01*
X45872400Y-81441921D01*
X45872400Y-80291730D01*
X45939808Y-80248162D01*
X46018333Y-80207240D01*
X46102519Y-80180589D01*
X46187643Y-80168665D01*
X46268984Y-80171922D01*
X46341820Y-80190815D01*
X46373774Y-80206384D01*
X46431699Y-80249381D01*
X46480656Y-80306153D01*
X46521810Y-80378775D01*
X46556326Y-80469321D01*
X46585367Y-80579866D01*
X46586648Y-80585733D01*
X46596819Y-80647988D01*
X46604461Y-80725794D01*
X46609530Y-80813920D01*
X46611983Y-80907134D01*
X47441100Y-80907134D01*
X47435343Y-80751095D01*
X47413398Y-80555259D01*
X47377414Y-80376532D01*
X47327441Y-80215045D01*
X47263532Y-80070926D01*
X47185738Y-79944306D01*
X47094111Y-79835315D01*
X46988703Y-79744083D01*
X46943538Y-79713132D01*
X46842589Y-79656985D01*
X46739299Y-79617374D01*
X46629211Y-79593214D01*
X46507870Y-79583419D01*
X46415364Y-79584465D01*
X46285710Y-79595431D01*
X46173116Y-79617246D01*
X46074325Y-79650914D01*
X45986079Y-79697436D01*
X45937214Y-79731648D01*
X45907847Y-79753562D01*
X45886157Y-79768533D01*
X45877947Y-79772933D01*
X45876332Y-79762104D01*
X45875041Y-79731451D01*
X45874062Y-79683726D01*
X45873383Y-79621679D01*
X45872990Y-79548062D01*
X45872870Y-79465627D01*
X45873012Y-79377125D01*
X45873403Y-79285307D01*
X45874029Y-79192924D01*
X45874880Y-79102728D01*
X45875940Y-79017471D01*
X45877199Y-78939903D01*
X45878644Y-78872776D01*
X45880262Y-78818841D01*
X45882039Y-78780850D01*
X45882531Y-78773867D01*
X45890108Y-78703451D01*
X45901669Y-78648302D01*
X45919408Y-78601181D01*
X45945518Y-78554847D01*
X45951785Y-78545267D01*
X45976217Y-78508578D01*
X45070889Y-78508578D01*
X45070693Y-80193445D01*
G37*
X45070693Y-80193445D02*
X45070674Y-80427862D01*
X45070648Y-80640803D01*
X45070575Y-80833368D01*
X45070418Y-81006659D01*
X45070136Y-81161776D01*
X45069691Y-81299820D01*
X45069044Y-81421892D01*
X45068155Y-81529094D01*
X45066987Y-81622526D01*
X45065499Y-81703290D01*
X45063654Y-81772486D01*
X45061411Y-81831215D01*
X45058731Y-81880579D01*
X45055577Y-81921678D01*
X45051908Y-81955613D01*
X45047687Y-81983486D01*
X45042873Y-82006398D01*
X45037427Y-82025449D01*
X45031312Y-82041740D01*
X45024488Y-82056373D01*
X45016915Y-82070449D01*
X45008555Y-82085068D01*
X45003361Y-82094174D01*
X44969096Y-82154889D01*
X45827245Y-82154889D01*
X45827245Y-82058933D01*
X45827976Y-82015570D01*
X45829928Y-81982405D01*
X45832737Y-81964624D01*
X45833979Y-81962978D01*
X45845401Y-81969862D01*
X45868116Y-81987705D01*
X45890815Y-82007079D01*
X45945400Y-82047814D01*
X46014879Y-82088817D01*
X46091930Y-82126323D01*
X46169235Y-82156564D01*
X46200087Y-82166212D01*
X46268584Y-82180778D01*
X46351436Y-82190739D01*
X46440829Y-82195783D01*
X46528952Y-82195596D01*
X46607993Y-82189866D01*
X46645689Y-82184058D01*
X46783786Y-82145997D01*
X46911087Y-82088273D01*
X47026908Y-82011411D01*
X47130563Y-81915939D01*
X47221367Y-81802379D01*
X47288169Y-81691581D01*
X47343036Y-81574825D01*
X47385037Y-81455476D01*
X47415033Y-81329483D01*
X47433889Y-81192794D01*
X47442468Y-81041358D01*
X47443194Y-80963911D01*
X47441100Y-80907134D01*
X46611983Y-80907134D01*
X46611776Y-81000202D01*
X46608863Y-81087892D01*
X46603200Y-81164972D01*
X46594745Y-81226209D01*
X46592162Y-81238550D01*
X46560360Y-81345833D01*
X46518702Y-81432858D01*
X46466837Y-81499842D01*
X46404419Y-81547005D01*
X46331100Y-81574565D01*
X46246531Y-81582741D01*
X46150365Y-81571751D01*
X46086889Y-81556029D01*
X46037746Y-81537839D01*
X45983617Y-81511991D01*
X45942956Y-81488289D01*
X45872400Y-81441921D01*
X45872400Y-80291730D01*
X45939808Y-80248162D01*
X46018333Y-80207240D01*
X46102519Y-80180589D01*
X46187643Y-80168665D01*
X46268984Y-80171922D01*
X46341820Y-80190815D01*
X46373774Y-80206384D01*
X46431699Y-80249381D01*
X46480656Y-80306153D01*
X46521810Y-80378775D01*
X46556326Y-80469321D01*
X46585367Y-80579866D01*
X46586648Y-80585733D01*
X46596819Y-80647988D01*
X46604461Y-80725794D01*
X46609530Y-80813920D01*
X46611983Y-80907134D01*
X47441100Y-80907134D01*
X47435343Y-80751095D01*
X47413398Y-80555259D01*
X47377414Y-80376532D01*
X47327441Y-80215045D01*
X47263532Y-80070926D01*
X47185738Y-79944306D01*
X47094111Y-79835315D01*
X46988703Y-79744083D01*
X46943538Y-79713132D01*
X46842589Y-79656985D01*
X46739299Y-79617374D01*
X46629211Y-79593214D01*
X46507870Y-79583419D01*
X46415364Y-79584465D01*
X46285710Y-79595431D01*
X46173116Y-79617246D01*
X46074325Y-79650914D01*
X45986079Y-79697436D01*
X45937214Y-79731648D01*
X45907847Y-79753562D01*
X45886157Y-79768533D01*
X45877947Y-79772933D01*
X45876332Y-79762104D01*
X45875041Y-79731451D01*
X45874062Y-79683726D01*
X45873383Y-79621679D01*
X45872990Y-79548062D01*
X45872870Y-79465627D01*
X45873012Y-79377125D01*
X45873403Y-79285307D01*
X45874029Y-79192924D01*
X45874880Y-79102728D01*
X45875940Y-79017471D01*
X45877199Y-78939903D01*
X45878644Y-78872776D01*
X45880262Y-78818841D01*
X45882039Y-78780850D01*
X45882531Y-78773867D01*
X45890108Y-78703451D01*
X45901669Y-78648302D01*
X45919408Y-78601181D01*
X45945518Y-78554847D01*
X45951785Y-78545267D01*
X45976217Y-78508578D01*
X45070889Y-78508578D01*
X45070693Y-80193445D01*
G36*
X48583626Y-79587752D02*
G01*
X48431708Y-79607767D01*
X48296444Y-79641402D01*
X48176961Y-79688925D01*
X48072385Y-79750605D01*
X47994776Y-79814165D01*
X47925935Y-79888299D01*
X47872194Y-79968071D01*
X47829290Y-80060291D01*
X47813816Y-80103361D01*
X47800956Y-80142342D01*
X47789754Y-80178489D01*
X47780080Y-80213634D01*
X47771804Y-80249610D01*
X47764797Y-80288250D01*
X47758928Y-80331385D01*
X47754069Y-80380849D01*
X47750090Y-80438473D01*
X47746860Y-80506091D01*
X47744251Y-80585534D01*
X47742133Y-80678636D01*
X47740376Y-80787227D01*
X47738851Y-80913142D01*
X47737428Y-81058212D01*
X47736175Y-81200978D01*
X47734849Y-81357168D01*
X47733644Y-81492439D01*
X47732434Y-81608446D01*
X47731094Y-81706845D01*
X47729500Y-81789293D01*
X47727525Y-81857446D01*
X47725044Y-81912960D01*
X47721931Y-81957492D01*
X47718062Y-81992698D01*
X47713311Y-82020234D01*
X47707552Y-82041756D01*
X47700661Y-82058922D01*
X47692511Y-82073386D01*
X47682977Y-82086806D01*
X47671934Y-82100838D01*
X47667634Y-82106271D01*
X47651814Y-82129110D01*
X47644778Y-82144663D01*
X47644756Y-82145122D01*
X47655633Y-82147321D01*
X47686618Y-82149347D01*
X47735243Y-82151142D01*
X47799037Y-82152651D01*
X47875531Y-82153816D01*
X47962256Y-82154580D01*
X48056743Y-82154886D01*
X48067650Y-82154889D01*
X48490543Y-82154889D01*
X48493805Y-82058822D01*
X48497067Y-81962756D01*
X48559156Y-82013743D01*
X48656486Y-82081257D01*
X48766387Y-82135949D01*
X48852851Y-82166178D01*
X48921922Y-82180866D01*
X49005275Y-82190859D01*
X49095041Y-82195846D01*
X49183355Y-82195513D01*
X49262349Y-82189551D01*
X49298578Y-82183838D01*
X49438597Y-82145976D01*
X49565022Y-82091132D01*
X49676940Y-82020124D01*
X49773438Y-81933768D01*
X49853600Y-81832879D01*
X49916513Y-81718276D01*
X49960888Y-81592184D01*
X49973222Y-81535601D01*
X49980832Y-81473402D01*
X49984461Y-81398563D01*
X49984955Y-81364667D01*
X49984890Y-81361482D01*
X49224952Y-81361482D01*
X49215659Y-81436533D01*
X49187472Y-81500360D01*
X49139003Y-81555998D01*
X49133946Y-81560411D01*
X49085652Y-81595237D01*
X49033943Y-81617820D01*
X48973211Y-81629740D01*
X48897848Y-81632583D01*
X48879741Y-81632178D01*
X48825922Y-81629525D01*
X48785892Y-81624109D01*
X48750876Y-81613945D01*
X48712097Y-81597050D01*
X48701455Y-81591872D01*
X48640804Y-81556044D01*
X48593985Y-81513412D01*
X48581248Y-81498173D01*
X48536578Y-81441662D01*
X48536578Y-81245786D01*
X48537114Y-81167139D01*
X48538804Y-81109188D01*
X48541772Y-81070075D01*
X48546143Y-81047941D01*
X48550228Y-81041474D01*
X48566153Y-81038311D01*
X48599936Y-81035688D01*
X48646860Y-81033855D01*
X48702207Y-81033057D01*
X48711094Y-81033042D01*
X48831870Y-81038296D01*
X48934540Y-81054463D01*
X49021094Y-81082161D01*
X49093519Y-81122008D01*
X49148449Y-81168958D01*
X49192996Y-81226845D01*
X49217720Y-81289893D01*
X49224952Y-81361482D01*
X49984890Y-81361482D01*
X49983022Y-81270912D01*
X49974678Y-81192012D01*
X49958432Y-81120790D01*
X49932795Y-81050064D01*
X49908799Y-80997693D01*
X49850180Y-80902396D01*
X49772083Y-80814370D01*
X49676885Y-80735217D01*
X49566962Y-80666540D01*
X49444690Y-80609941D01*
X49312445Y-80567021D01*
X49247778Y-80552082D01*
X49111596Y-80529977D01*
X48963151Y-80515394D01*
X48811695Y-80509013D01*
X48685136Y-80510645D01*
X48523250Y-80517424D01*
X48530670Y-80458445D01*
X48549962Y-80359292D01*
X48581096Y-80278572D01*
X48624931Y-80215666D01*
X48682329Y-80169956D01*
X48754152Y-80140822D01*
X48841259Y-80127647D01*
X48944514Y-80129811D01*
X48982489Y-80133812D01*
X49123680Y-80158980D01*
X49260493Y-80200014D01*
X49355022Y-80238015D01*
X49400182Y-80257390D01*
X49438615Y-80272960D01*
X49464966Y-80282605D01*
X49472654Y-80284652D01*
X49482398Y-80275574D01*
X49499117Y-80246605D01*
X49522968Y-80197417D01*
X49554107Y-80127684D01*
X49592693Y-80037079D01*
X49599290Y-80021289D01*
X49629347Y-79948972D01*
X49656326Y-79883625D01*
X49679064Y-79828106D01*
X49696394Y-79785272D01*
X49707152Y-79757981D01*
X49710259Y-79749142D01*
X49700260Y-79744387D01*
X49673983Y-79739110D01*
X49645711Y-79735431D01*
X49615554Y-79730674D01*
X49567767Y-79721228D01*
X49506588Y-79708020D01*
X49436254Y-79691976D01*
X49361006Y-79674020D01*
X49332445Y-79666997D01*
X49227384Y-79641409D01*
X49139720Y-79621347D01*
X49065132Y-79606169D01*
X48999297Y-79595235D01*
X48937893Y-79587904D01*
X48876598Y-79583535D01*
X48811090Y-79581487D01*
X48753072Y-79581089D01*
X48583626Y-79587752D01*
G37*
X48583626Y-79587752D02*
X48431708Y-79607767D01*
X48296444Y-79641402D01*
X48176961Y-79688925D01*
X48072385Y-79750605D01*
X47994776Y-79814165D01*
X47925935Y-79888299D01*
X47872194Y-79968071D01*
X47829290Y-80060291D01*
X47813816Y-80103361D01*
X47800956Y-80142342D01*
X47789754Y-80178489D01*
X47780080Y-80213634D01*
X47771804Y-80249610D01*
X47764797Y-80288250D01*
X47758928Y-80331385D01*
X47754069Y-80380849D01*
X47750090Y-80438473D01*
X47746860Y-80506091D01*
X47744251Y-80585534D01*
X47742133Y-80678636D01*
X47740376Y-80787227D01*
X47738851Y-80913142D01*
X47737428Y-81058212D01*
X47736175Y-81200978D01*
X47734849Y-81357168D01*
X47733644Y-81492439D01*
X47732434Y-81608446D01*
X47731094Y-81706845D01*
X47729500Y-81789293D01*
X47727525Y-81857446D01*
X47725044Y-81912960D01*
X47721931Y-81957492D01*
X47718062Y-81992698D01*
X47713311Y-82020234D01*
X47707552Y-82041756D01*
X47700661Y-82058922D01*
X47692511Y-82073386D01*
X47682977Y-82086806D01*
X47671934Y-82100838D01*
X47667634Y-82106271D01*
X47651814Y-82129110D01*
X47644778Y-82144663D01*
X47644756Y-82145122D01*
X47655633Y-82147321D01*
X47686618Y-82149347D01*
X47735243Y-82151142D01*
X47799037Y-82152651D01*
X47875531Y-82153816D01*
X47962256Y-82154580D01*
X48056743Y-82154886D01*
X48067650Y-82154889D01*
X48490543Y-82154889D01*
X48493805Y-82058822D01*
X48497067Y-81962756D01*
X48559156Y-82013743D01*
X48656486Y-82081257D01*
X48766387Y-82135949D01*
X48852851Y-82166178D01*
X48921922Y-82180866D01*
X49005275Y-82190859D01*
X49095041Y-82195846D01*
X49183355Y-82195513D01*
X49262349Y-82189551D01*
X49298578Y-82183838D01*
X49438597Y-82145976D01*
X49565022Y-82091132D01*
X49676940Y-82020124D01*
X49773438Y-81933768D01*
X49853600Y-81832879D01*
X49916513Y-81718276D01*
X49960888Y-81592184D01*
X49973222Y-81535601D01*
X49980832Y-81473402D01*
X49984461Y-81398563D01*
X49984955Y-81364667D01*
X49984890Y-81361482D01*
X49224952Y-81361482D01*
X49215659Y-81436533D01*
X49187472Y-81500360D01*
X49139003Y-81555998D01*
X49133946Y-81560411D01*
X49085652Y-81595237D01*
X49033943Y-81617820D01*
X48973211Y-81629740D01*
X48897848Y-81632583D01*
X48879741Y-81632178D01*
X48825922Y-81629525D01*
X48785892Y-81624109D01*
X48750876Y-81613945D01*
X48712097Y-81597050D01*
X48701455Y-81591872D01*
X48640804Y-81556044D01*
X48593985Y-81513412D01*
X48581248Y-81498173D01*
X48536578Y-81441662D01*
X48536578Y-81245786D01*
X48537114Y-81167139D01*
X48538804Y-81109188D01*
X48541772Y-81070075D01*
X48546143Y-81047941D01*
X48550228Y-81041474D01*
X48566153Y-81038311D01*
X48599936Y-81035688D01*
X48646860Y-81033855D01*
X48702207Y-81033057D01*
X48711094Y-81033042D01*
X48831870Y-81038296D01*
X48934540Y-81054463D01*
X49021094Y-81082161D01*
X49093519Y-81122008D01*
X49148449Y-81168958D01*
X49192996Y-81226845D01*
X49217720Y-81289893D01*
X49224952Y-81361482D01*
X49984890Y-81361482D01*
X49983022Y-81270912D01*
X49974678Y-81192012D01*
X49958432Y-81120790D01*
X49932795Y-81050064D01*
X49908799Y-80997693D01*
X49850180Y-80902396D01*
X49772083Y-80814370D01*
X49676885Y-80735217D01*
X49566962Y-80666540D01*
X49444690Y-80609941D01*
X49312445Y-80567021D01*
X49247778Y-80552082D01*
X49111596Y-80529977D01*
X48963151Y-80515394D01*
X48811695Y-80509013D01*
X48685136Y-80510645D01*
X48523250Y-80517424D01*
X48530670Y-80458445D01*
X48549962Y-80359292D01*
X48581096Y-80278572D01*
X48624931Y-80215666D01*
X48682329Y-80169956D01*
X48754152Y-80140822D01*
X48841259Y-80127647D01*
X48944514Y-80129811D01*
X48982489Y-80133812D01*
X49123680Y-80158980D01*
X49260493Y-80200014D01*
X49355022Y-80238015D01*
X49400182Y-80257390D01*
X49438615Y-80272960D01*
X49464966Y-80282605D01*
X49472654Y-80284652D01*
X49482398Y-80275574D01*
X49499117Y-80246605D01*
X49522968Y-80197417D01*
X49554107Y-80127684D01*
X49592693Y-80037079D01*
X49599290Y-80021289D01*
X49629347Y-79948972D01*
X49656326Y-79883625D01*
X49679064Y-79828106D01*
X49696394Y-79785272D01*
X49707152Y-79757981D01*
X49710259Y-79749142D01*
X49700260Y-79744387D01*
X49673983Y-79739110D01*
X49645711Y-79735431D01*
X49615554Y-79730674D01*
X49567767Y-79721228D01*
X49506588Y-79708020D01*
X49436254Y-79691976D01*
X49361006Y-79674020D01*
X49332445Y-79666997D01*
X49227384Y-79641409D01*
X49139720Y-79621347D01*
X49065132Y-79606169D01*
X48999297Y-79595235D01*
X48937893Y-79587904D01*
X48876598Y-79583535D01*
X48811090Y-79581487D01*
X48753072Y-79581089D01*
X48583626Y-79587752D01*
G36*
X50928771Y-78670271D02*
G01*
X50768630Y-78691445D01*
X50604690Y-78731585D01*
X50434887Y-78791089D01*
X50257157Y-78870354D01*
X50245890Y-78875899D01*
X50188195Y-78903925D01*
X50136648Y-78928002D01*
X50095009Y-78946449D01*
X50067038Y-78957586D01*
X50057467Y-78960133D01*
X50038250Y-78965141D01*
X50033639Y-78969347D01*
X50038742Y-78979780D01*
X50054782Y-79006068D01*
X50079912Y-79045457D01*
X50112286Y-79095191D01*
X50150057Y-79152515D01*
X50191378Y-79214676D01*
X50234402Y-79278918D01*
X50277283Y-79342485D01*
X50318174Y-79402625D01*
X50355229Y-79456580D01*
X50386600Y-79501597D01*
X50410441Y-79534921D01*
X50424906Y-79553797D01*
X50426891Y-79555987D01*
X50437009Y-79551338D01*
X50459350Y-79534162D01*
X50489920Y-79507640D01*
X50505664Y-79493164D01*
X50602153Y-79417882D01*
X50708864Y-79362441D01*
X50824368Y-79327341D01*
X50947238Y-79313080D01*
X51016639Y-79314251D01*
X51137777Y-79331412D01*
X51246995Y-79367294D01*
X51344618Y-79422159D01*
X51430972Y-79496270D01*
X51506385Y-79589888D01*
X51571182Y-79703276D01*
X51608599Y-79789867D01*
X51652452Y-79925566D01*
X51684772Y-80073050D01*
X51705643Y-80228514D01*
X51715149Y-80388156D01*
X51713373Y-80548173D01*
X51700397Y-80704761D01*
X51676306Y-80854118D01*
X51641182Y-80992440D01*
X51595108Y-81115924D01*
X51578827Y-81150178D01*
X51510580Y-81264264D01*
X51430121Y-81360757D01*
X51338630Y-81438870D01*
X51237289Y-81497817D01*
X51127280Y-81536812D01*
X51009785Y-81555068D01*
X50968317Y-81556411D01*
X50846759Y-81545490D01*
X50726322Y-81512674D01*
X50608534Y-81458639D01*
X50494923Y-81384065D01*
X50403515Y-81305739D01*
X50356985Y-81261208D01*
X50175717Y-81558471D01*
X50130620Y-81632633D01*
X50089381Y-81700846D01*
X50053465Y-81760659D01*
X50024334Y-81809620D01*
X50003450Y-81845279D01*
X49992276Y-81865184D01*
X49990825Y-81868279D01*
X49999054Y-81877918D01*
X50024633Y-81895199D01*
X50064327Y-81918483D01*
X50114903Y-81946134D01*
X50173126Y-81976515D01*
X50235763Y-82007990D01*
X50299579Y-82038922D01*
X50361340Y-82067673D01*
X50417812Y-82092608D01*
X50465762Y-82112089D01*
X50489214Y-82120518D01*
X50622979Y-82158333D01*
X50760873Y-82183336D01*
X50908578Y-82196340D01*
X51035367Y-82198668D01*
X51103322Y-82197573D01*
X51168923Y-82195475D01*
X51226353Y-82192634D01*
X51269797Y-82189306D01*
X51283902Y-82187622D01*
X51422916Y-82158787D01*
X51564443Y-82113668D01*
X51701925Y-82054950D01*
X51828806Y-81985320D01*
X51906311Y-81932641D01*
X52033719Y-81824439D01*
X52152022Y-81697871D01*
X52259028Y-81556066D01*
X52352548Y-81402151D01*
X52430390Y-81239253D01*
X52474244Y-81121956D01*
X52524492Y-80938328D01*
X52557991Y-80743781D01*
X52574751Y-80542525D01*
X52574784Y-80338768D01*
X52558099Y-80136721D01*
X52524707Y-79940592D01*
X52474620Y-79754591D01*
X52470803Y-79743003D01*
X52407919Y-79580950D01*
X52331172Y-79433032D01*
X52237958Y-79295065D01*
X52125673Y-79162861D01*
X52081808Y-79117599D01*
X51945666Y-78993657D01*
X51805709Y-78891115D01*
X51659789Y-78808856D01*
X51505758Y-78745764D01*
X51341468Y-78700723D01*
X51245911Y-78683233D01*
X51087177Y-78667666D01*
X50928771Y-78670271D01*
G37*
X50928771Y-78670271D02*
X50768630Y-78691445D01*
X50604690Y-78731585D01*
X50434887Y-78791089D01*
X50257157Y-78870354D01*
X50245890Y-78875899D01*
X50188195Y-78903925D01*
X50136648Y-78928002D01*
X50095009Y-78946449D01*
X50067038Y-78957586D01*
X50057467Y-78960133D01*
X50038250Y-78965141D01*
X50033639Y-78969347D01*
X50038742Y-78979780D01*
X50054782Y-79006068D01*
X50079912Y-79045457D01*
X50112286Y-79095191D01*
X50150057Y-79152515D01*
X50191378Y-79214676D01*
X50234402Y-79278918D01*
X50277283Y-79342485D01*
X50318174Y-79402625D01*
X50355229Y-79456580D01*
X50386600Y-79501597D01*
X50410441Y-79534921D01*
X50424906Y-79553797D01*
X50426891Y-79555987D01*
X50437009Y-79551338D01*
X50459350Y-79534162D01*
X50489920Y-79507640D01*
X50505664Y-79493164D01*
X50602153Y-79417882D01*
X50708864Y-79362441D01*
X50824368Y-79327341D01*
X50947238Y-79313080D01*
X51016639Y-79314251D01*
X51137777Y-79331412D01*
X51246995Y-79367294D01*
X51344618Y-79422159D01*
X51430972Y-79496270D01*
X51506385Y-79589888D01*
X51571182Y-79703276D01*
X51608599Y-79789867D01*
X51652452Y-79925566D01*
X51684772Y-80073050D01*
X51705643Y-80228514D01*
X51715149Y-80388156D01*
X51713373Y-80548173D01*
X51700397Y-80704761D01*
X51676306Y-80854118D01*
X51641182Y-80992440D01*
X51595108Y-81115924D01*
X51578827Y-81150178D01*
X51510580Y-81264264D01*
X51430121Y-81360757D01*
X51338630Y-81438870D01*
X51237289Y-81497817D01*
X51127280Y-81536812D01*
X51009785Y-81555068D01*
X50968317Y-81556411D01*
X50846759Y-81545490D01*
X50726322Y-81512674D01*
X50608534Y-81458639D01*
X50494923Y-81384065D01*
X50403515Y-81305739D01*
X50356985Y-81261208D01*
X50175717Y-81558471D01*
X50130620Y-81632633D01*
X50089381Y-81700846D01*
X50053465Y-81760659D01*
X50024334Y-81809620D01*
X50003450Y-81845279D01*
X49992276Y-81865184D01*
X49990825Y-81868279D01*
X49999054Y-81877918D01*
X50024633Y-81895199D01*
X50064327Y-81918483D01*
X50114903Y-81946134D01*
X50173126Y-81976515D01*
X50235763Y-82007990D01*
X50299579Y-82038922D01*
X50361340Y-82067673D01*
X50417812Y-82092608D01*
X50465762Y-82112089D01*
X50489214Y-82120518D01*
X50622979Y-82158333D01*
X50760873Y-82183336D01*
X50908578Y-82196340D01*
X51035367Y-82198668D01*
X51103322Y-82197573D01*
X51168923Y-82195475D01*
X51226353Y-82192634D01*
X51269797Y-82189306D01*
X51283902Y-82187622D01*
X51422916Y-82158787D01*
X51564443Y-82113668D01*
X51701925Y-82054950D01*
X51828806Y-81985320D01*
X51906311Y-81932641D01*
X52033719Y-81824439D01*
X52152022Y-81697871D01*
X52259028Y-81556066D01*
X52352548Y-81402151D01*
X52430390Y-81239253D01*
X52474244Y-81121956D01*
X52524492Y-80938328D01*
X52557991Y-80743781D01*
X52574751Y-80542525D01*
X52574784Y-80338768D01*
X52558099Y-80136721D01*
X52524707Y-79940592D01*
X52474620Y-79754591D01*
X52470803Y-79743003D01*
X52407919Y-79580950D01*
X52331172Y-79433032D01*
X52237958Y-79295065D01*
X52125673Y-79162861D01*
X52081808Y-79117599D01*
X51945666Y-78993657D01*
X51805709Y-78891115D01*
X51659789Y-78808856D01*
X51505758Y-78745764D01*
X51341468Y-78700723D01*
X51245911Y-78683233D01*
X51087177Y-78667666D01*
X50928771Y-78670271D01*
G36*
X54203600Y-78210254D02*
G01*
X54192735Y-78324193D01*
X54161118Y-78431816D01*
X54110215Y-78530815D01*
X54041493Y-78618884D01*
X53956419Y-78693716D01*
X53859432Y-78751584D01*
X53753164Y-78791205D01*
X53646150Y-78809773D01*
X53540500Y-78808634D01*
X53438325Y-78789130D01*
X53341734Y-78752606D01*
X53252838Y-78700405D01*
X53173746Y-78633873D01*
X53106569Y-78554352D01*
X53053417Y-78463187D01*
X53016399Y-78361723D01*
X52997627Y-78251302D01*
X52995689Y-78201406D01*
X52995689Y-78113467D01*
X52943760Y-78113467D01*
X52907453Y-78116311D01*
X52880555Y-78128111D01*
X52853449Y-78151849D01*
X52815067Y-78190231D01*
X52815067Y-80381802D01*
X52815076Y-80643939D01*
X52815108Y-80884441D01*
X52815172Y-81104248D01*
X52815276Y-81304301D01*
X52815427Y-81485544D01*
X52815634Y-81648916D01*
X52815906Y-81795360D01*
X52816250Y-81925817D01*
X52816674Y-82041229D01*
X52817187Y-82142538D01*
X52817797Y-82230684D01*
X52818512Y-82306610D01*
X52819340Y-82371257D01*
X52820289Y-82425567D01*
X52821367Y-82470480D01*
X52822583Y-82506940D01*
X52823945Y-82535887D01*
X52825461Y-82558263D01*
X52827138Y-82575009D01*
X52828986Y-82587068D01*
X52831013Y-82595380D01*
X52833225Y-82600887D01*
X52834308Y-82602737D01*
X52838471Y-82609749D01*
X52842005Y-82616196D01*
X52845835Y-82622100D01*
X52850882Y-82627486D01*
X52858071Y-82632378D01*
X52868323Y-82636798D01*
X52882564Y-82640772D01*
X52901714Y-82644321D01*
X52926699Y-82647470D01*
X52958440Y-82650242D01*
X52997862Y-82652661D01*
X53045886Y-82654751D01*
X53103437Y-82656535D01*
X53171437Y-82658037D01*
X53250810Y-82659280D01*
X53342479Y-82660289D01*
X53447366Y-82661085D01*
X53566396Y-82661694D01*
X53700490Y-82662139D01*
X53850573Y-82662443D01*
X54017567Y-82662630D01*
X54202396Y-82662724D01*
X54405983Y-82662748D01*
X54629250Y-82662725D01*
X54873122Y-82662680D01*
X55138521Y-82662637D01*
X55176904Y-82662632D01*
X55443882Y-82662589D01*
X55689202Y-82662518D01*
X55913783Y-82662413D01*
X56118545Y-82662266D01*
X56304406Y-82662069D01*
X56472288Y-82661816D01*
X56623108Y-82661500D01*
X56757787Y-82661113D01*
X56877244Y-82660647D01*
X56982399Y-82660097D01*
X57074171Y-82659453D01*
X57153479Y-82658711D01*
X57221243Y-82657861D01*
X57278382Y-82656897D01*
X57325817Y-82655811D01*
X57364466Y-82654597D01*
X57395249Y-82653247D01*
X57419085Y-82651755D01*
X57436894Y-82650111D01*
X57449595Y-82648311D01*
X57458108Y-82646345D01*
X57462466Y-82644677D01*
X57470928Y-82641106D01*
X57478697Y-82638470D01*
X57485802Y-82635834D01*
X57492273Y-82632262D01*
X57498139Y-82626821D01*
X57503429Y-82618575D01*
X57508174Y-82606590D01*
X57512402Y-82589931D01*
X57516143Y-82567663D01*
X57519427Y-82538852D01*
X57522283Y-82502563D01*
X57524740Y-82457861D01*
X57526829Y-82403811D01*
X57528578Y-82339479D01*
X57530017Y-82263930D01*
X57531176Y-82176230D01*
X57532083Y-82075443D01*
X57532769Y-81960634D01*
X57533263Y-81830870D01*
X57533595Y-81685215D01*
X57533793Y-81522735D01*
X57533887Y-81342495D01*
X57533908Y-81143560D01*
X57533885Y-80924996D01*
X57533846Y-80685868D01*
X57533822Y-80425240D01*
X57533822Y-80383089D01*
X57533836Y-80120192D01*
X57533861Y-79878932D01*
X57533871Y-79658365D01*
X57533842Y-79457552D01*
X57533748Y-79275549D01*
X57533562Y-79111416D01*
X57533259Y-78964211D01*
X57532814Y-78832992D01*
X57532234Y-78723067D01*
X57229397Y-78723067D01*
X57189607Y-78780911D01*
X57178436Y-78796679D01*
X57168366Y-78810641D01*
X57159338Y-78823984D01*
X57151297Y-78837893D01*
X57144186Y-78853556D01*
X57137947Y-78872158D01*
X57132525Y-78894886D01*
X57127862Y-78922927D01*
X57123901Y-78957467D01*
X57120585Y-78999692D01*
X57117859Y-79050789D01*
X57115664Y-79111944D01*
X57113945Y-79184344D01*
X57112644Y-79269175D01*
X57111705Y-79367622D01*
X57111070Y-79480874D01*
X57110684Y-79610116D01*
X57110488Y-79756534D01*
X57110427Y-79921316D01*
X57110443Y-80105647D01*
X57110480Y-80310713D01*
X57110489Y-80433333D01*
X57110465Y-80650282D01*
X57110431Y-80845842D01*
X57110443Y-81021199D01*
X57110558Y-81177541D01*
X57110830Y-81316057D01*
X57111318Y-81437934D01*
X57112076Y-81544360D01*
X57113162Y-81636522D01*
X57114631Y-81715609D01*
X57116540Y-81782808D01*
X57118944Y-81839307D01*
X57121901Y-81886293D01*
X57125466Y-81924955D01*
X57129695Y-81956480D01*
X57134646Y-81982055D01*
X57140373Y-82002870D01*
X57146933Y-82020111D01*
X57154383Y-82034965D01*
X57162779Y-82048622D01*
X57172176Y-82062269D01*
X57182632Y-82077093D01*
X57188723Y-82085983D01*
X57227496Y-82143600D01*
X56695932Y-82143600D01*
X56572683Y-82143565D01*
X56470187Y-82143415D01*
X56386620Y-82143078D01*
X56320156Y-82142486D01*
X56268971Y-82141567D01*
X56231241Y-82140251D01*
X56205140Y-82138469D01*
X56188844Y-82136151D01*
X56180528Y-82133226D01*
X56178368Y-82129624D01*
X56180539Y-82125275D01*
X56181735Y-82123845D01*
X56206885Y-82086773D01*
X56232783Y-82033972D01*
X56256392Y-81971970D01*
X56264661Y-81945557D01*
X56269278Y-81927616D01*
X56273179Y-81906555D01*
X56276448Y-81880289D01*
X56279166Y-81846732D01*
X56281415Y-81803799D01*
X56283277Y-81749404D01*
X56284836Y-81681462D01*
X56286172Y-81597888D01*
X56287369Y-81496595D01*
X56288508Y-81375500D01*
X56288885Y-81330800D01*
X56289902Y-81205649D01*
X56290660Y-81101282D01*
X56291103Y-81015907D01*
X56291170Y-80947733D01*
X56290805Y-80894965D01*
X56289948Y-80855814D01*
X56288541Y-80828485D01*
X56286525Y-80811186D01*
X56283843Y-80802126D01*
X56280436Y-80799512D01*
X56276244Y-80801551D01*
X56271771Y-80805867D01*
X56261416Y-80818802D01*
X56239358Y-80847876D01*
X56207157Y-80890959D01*
X56166374Y-80945918D01*
X56118570Y-81010623D01*
X56065305Y-81082942D01*
X56008140Y-81160744D01*
X55948637Y-81241898D01*
X55888355Y-81324272D01*
X55828855Y-81405736D01*
X55771698Y-81484157D01*
X55718445Y-81557404D01*
X55670657Y-81623347D01*
X55629893Y-81679854D01*
X55597716Y-81724793D01*
X55575685Y-81756034D01*
X55571117Y-81762666D01*
X55548196Y-81799569D01*
X55521388Y-81847559D01*
X55495989Y-81897097D01*
X55492768Y-81903777D01*
X55471090Y-81951972D01*
X55458504Y-81989534D01*
X55452774Y-82025360D01*
X55451656Y-82067400D01*
X55452290Y-82143600D01*
X54297851Y-82143600D01*
X54389015Y-82049869D01*
X54435812Y-81999975D01*
X54486099Y-81943495D01*
X54532144Y-81889226D01*
X54552569Y-81863873D01*
X54583007Y-81824328D01*
X54623062Y-81771116D01*
X54671561Y-81705867D01*
X54727335Y-81630211D01*
X54789211Y-81545777D01*
X54856019Y-81454194D01*
X54926587Y-81357092D01*
X54999745Y-81256101D01*
X55074321Y-81152850D01*
X55149144Y-81048968D01*
X55223043Y-80946085D01*
X55294846Y-80845831D01*
X55363384Y-80749836D01*
X55427484Y-80659727D01*
X55485975Y-80577136D01*
X55537686Y-80503692D01*
X55581447Y-80441024D01*
X55616085Y-80390761D01*
X55640430Y-80354534D01*
X55653311Y-80333971D01*
X55655069Y-80329868D01*
X55647110Y-80318542D01*
X55626315Y-80291362D01*
X55594047Y-80250029D01*
X55551670Y-80196244D01*
X55500547Y-80131706D01*
X55442041Y-80058118D01*
X55377514Y-79977178D01*
X55308331Y-79890588D01*
X55235853Y-79800048D01*
X55161446Y-79707260D01*
X55101717Y-79632902D01*
X54090711Y-79632902D01*
X54084802Y-79645859D01*
X54070472Y-79668108D01*
X54069425Y-79669591D01*
X54050638Y-79699744D01*
X54030991Y-79736575D01*
X54027092Y-79744711D01*
X54023556Y-79753140D01*
X54020430Y-79763259D01*
X54017686Y-79776460D01*
X54015292Y-79794138D01*
X54013219Y-79817684D01*
X54011435Y-79848493D01*
X54009912Y-79887957D01*
X54008619Y-79937469D01*
X54007526Y-79998423D01*
X54006603Y-80072211D01*
X54005819Y-80160228D01*
X54005145Y-80263865D01*
X54004550Y-80384516D01*
X54004005Y-80523574D01*
X54003479Y-80682432D01*
X54002945Y-80861289D01*
X54002406Y-81046407D01*
X54001972Y-81210345D01*
X54001709Y-81354503D01*
X54001684Y-81480279D01*
X54001965Y-81589071D01*
X54002619Y-81682277D01*
X54003714Y-81761297D01*
X54005318Y-81827528D01*
X54007497Y-81882370D01*
X54010319Y-81927221D01*
X54013851Y-81963478D01*
X54018161Y-81992541D01*
X54023317Y-82015809D01*
X54029385Y-82034679D01*
X54036433Y-82050551D01*
X54044529Y-82064822D01*
X54053740Y-82078891D01*
X54062240Y-82091358D01*
X54079376Y-82117652D01*
X54089522Y-82135237D01*
X54090711Y-82138457D01*
X54079804Y-82139534D01*
X54048611Y-82140535D01*
X53999423Y-82141435D01*
X53934533Y-82142210D01*
X53856230Y-82142837D01*
X53766807Y-82143291D01*
X53668556Y-82143549D01*
X53599645Y-82143600D01*
X53494652Y-82143380D01*
X53397810Y-82142748D01*
X53311307Y-82141749D01*
X53237332Y-82140427D01*
X53178074Y-82138826D01*
X53135720Y-82136991D01*
X53112460Y-82134965D01*
X53108578Y-82133693D01*
X53116276Y-82118791D01*
X53124274Y-82110760D01*
X53137446Y-82093634D01*
X53154685Y-82063383D01*
X53166607Y-82038822D01*
X53193245Y-81979911D01*
X53196320Y-80803045D01*
X53199395Y-79626178D01*
X53645053Y-79626178D01*
X53742870Y-79626342D01*
X53833264Y-79626811D01*
X53913830Y-79627547D01*
X53982162Y-79628516D01*
X54035856Y-79629680D01*
X54072505Y-79631003D01*
X54089704Y-79632449D01*
X54090711Y-79632902D01*
X55101717Y-79632902D01*
X55086470Y-79613922D01*
X55012290Y-79521737D01*
X54940269Y-79432404D01*
X54871769Y-79347624D01*
X54808155Y-79269098D01*
X54750788Y-79198526D01*
X54701033Y-79137609D01*
X54660252Y-79088047D01*
X54643088Y-79067378D01*
X54556796Y-78966716D01*
X54480197Y-78883459D01*
X54411383Y-78815638D01*
X54348448Y-78761289D01*
X54339067Y-78753922D01*
X54299556Y-78723317D01*
X55431316Y-78723067D01*
X55426027Y-78771044D01*
X55429330Y-78828388D01*
X55450861Y-78896663D01*
X55490835Y-78976412D01*
X55536143Y-79048695D01*
X55552361Y-79071340D01*
X55580414Y-79108896D01*
X55618630Y-79159221D01*
X55665337Y-79220173D01*
X55718861Y-79289611D01*
X55777531Y-79365394D01*
X55839675Y-79445380D01*
X55903621Y-79527428D01*
X55967695Y-79609396D01*
X56030227Y-79689143D01*
X56089543Y-79764527D01*
X56143971Y-79833407D01*
X56191839Y-79893642D01*
X56231475Y-79943089D01*
X56261206Y-79979608D01*
X56279361Y-80001058D01*
X56282420Y-80004356D01*
X56285279Y-79996349D01*
X56287493Y-79966055D01*
X56289057Y-79913756D01*
X56289967Y-79839731D01*
X56290220Y-79744263D01*
X56289813Y-79627634D01*
X56288904Y-79507645D01*
X56287582Y-79375533D01*
X56286057Y-79263794D01*
X56284081Y-79170225D01*
X56281406Y-79092619D01*
X56277782Y-79028774D01*
X56272961Y-78976483D01*
X56266694Y-78933544D01*
X56258732Y-78897751D01*
X56248827Y-78866900D01*
X56236731Y-78838786D01*
X56222193Y-78811205D01*
X56207511Y-78786166D01*
X56169514Y-78723067D01*
X57229397Y-78723067D01*
X57532234Y-78723067D01*
X57532201Y-78716817D01*
X57531395Y-78614744D01*
X57530370Y-78525833D01*
X57529100Y-78449141D01*
X57527560Y-78383727D01*
X57525724Y-78328649D01*
X57523567Y-78282965D01*
X57521063Y-78245734D01*
X57518187Y-78216013D01*
X57514913Y-78192862D01*
X57511215Y-78175339D01*
X57507069Y-78162501D01*
X57502447Y-78153408D01*
X57497326Y-78147118D01*
X57491678Y-78142688D01*
X57485479Y-78139178D01*
X57478704Y-78135645D01*
X57472708Y-78132076D01*
X57467475Y-78129500D01*
X57459299Y-78127172D01*
X57447086Y-78125078D01*
X57429741Y-78123207D01*
X57406169Y-78121547D01*
X57375277Y-78120084D01*
X57335968Y-78118808D01*
X57287150Y-78117704D01*
X57227727Y-78116761D01*
X57156604Y-78115967D01*
X57072688Y-78115309D01*
X56974883Y-78114775D01*
X56862094Y-78114353D01*
X56733229Y-78114029D01*
X56587191Y-78113792D01*
X56422886Y-78113630D01*
X56239220Y-78113530D01*
X56035097Y-78113480D01*
X55823953Y-78113467D01*
X54203600Y-78113467D01*
X54203600Y-78210254D01*
G37*
X54203600Y-78210254D02*
X54192735Y-78324193D01*
X54161118Y-78431816D01*
X54110215Y-78530815D01*
X54041493Y-78618884D01*
X53956419Y-78693716D01*
X53859432Y-78751584D01*
X53753164Y-78791205D01*
X53646150Y-78809773D01*
X53540500Y-78808634D01*
X53438325Y-78789130D01*
X53341734Y-78752606D01*
X53252838Y-78700405D01*
X53173746Y-78633873D01*
X53106569Y-78554352D01*
X53053417Y-78463187D01*
X53016399Y-78361723D01*
X52997627Y-78251302D01*
X52995689Y-78201406D01*
X52995689Y-78113467D01*
X52943760Y-78113467D01*
X52907453Y-78116311D01*
X52880555Y-78128111D01*
X52853449Y-78151849D01*
X52815067Y-78190231D01*
X52815067Y-80381802D01*
X52815076Y-80643939D01*
X52815108Y-80884441D01*
X52815172Y-81104248D01*
X52815276Y-81304301D01*
X52815427Y-81485544D01*
X52815634Y-81648916D01*
X52815906Y-81795360D01*
X52816250Y-81925817D01*
X52816674Y-82041229D01*
X52817187Y-82142538D01*
X52817797Y-82230684D01*
X52818512Y-82306610D01*
X52819340Y-82371257D01*
X52820289Y-82425567D01*
X52821367Y-82470480D01*
X52822583Y-82506940D01*
X52823945Y-82535887D01*
X52825461Y-82558263D01*
X52827138Y-82575009D01*
X52828986Y-82587068D01*
X52831013Y-82595380D01*
X52833225Y-82600887D01*
X52834308Y-82602737D01*
X52838471Y-82609749D01*
X52842005Y-82616196D01*
X52845835Y-82622100D01*
X52850882Y-82627486D01*
X52858071Y-82632378D01*
X52868323Y-82636798D01*
X52882564Y-82640772D01*
X52901714Y-82644321D01*
X52926699Y-82647470D01*
X52958440Y-82650242D01*
X52997862Y-82652661D01*
X53045886Y-82654751D01*
X53103437Y-82656535D01*
X53171437Y-82658037D01*
X53250810Y-82659280D01*
X53342479Y-82660289D01*
X53447366Y-82661085D01*
X53566396Y-82661694D01*
X53700490Y-82662139D01*
X53850573Y-82662443D01*
X54017567Y-82662630D01*
X54202396Y-82662724D01*
X54405983Y-82662748D01*
X54629250Y-82662725D01*
X54873122Y-82662680D01*
X55138521Y-82662637D01*
X55176904Y-82662632D01*
X55443882Y-82662589D01*
X55689202Y-82662518D01*
X55913783Y-82662413D01*
X56118545Y-82662266D01*
X56304406Y-82662069D01*
X56472288Y-82661816D01*
X56623108Y-82661500D01*
X56757787Y-82661113D01*
X56877244Y-82660647D01*
X56982399Y-82660097D01*
X57074171Y-82659453D01*
X57153479Y-82658711D01*
X57221243Y-82657861D01*
X57278382Y-82656897D01*
X57325817Y-82655811D01*
X57364466Y-82654597D01*
X57395249Y-82653247D01*
X57419085Y-82651755D01*
X57436894Y-82650111D01*
X57449595Y-82648311D01*
X57458108Y-82646345D01*
X57462466Y-82644677D01*
X57470928Y-82641106D01*
X57478697Y-82638470D01*
X57485802Y-82635834D01*
X57492273Y-82632262D01*
X57498139Y-82626821D01*
X57503429Y-82618575D01*
X57508174Y-82606590D01*
X57512402Y-82589931D01*
X57516143Y-82567663D01*
X57519427Y-82538852D01*
X57522283Y-82502563D01*
X57524740Y-82457861D01*
X57526829Y-82403811D01*
X57528578Y-82339479D01*
X57530017Y-82263930D01*
X57531176Y-82176230D01*
X57532083Y-82075443D01*
X57532769Y-81960634D01*
X57533263Y-81830870D01*
X57533595Y-81685215D01*
X57533793Y-81522735D01*
X57533887Y-81342495D01*
X57533908Y-81143560D01*
X57533885Y-80924996D01*
X57533846Y-80685868D01*
X57533822Y-80425240D01*
X57533822Y-80383089D01*
X57533836Y-80120192D01*
X57533861Y-79878932D01*
X57533871Y-79658365D01*
X57533842Y-79457552D01*
X57533748Y-79275549D01*
X57533562Y-79111416D01*
X57533259Y-78964211D01*
X57532814Y-78832992D01*
X57532234Y-78723067D01*
X57229397Y-78723067D01*
X57189607Y-78780911D01*
X57178436Y-78796679D01*
X57168366Y-78810641D01*
X57159338Y-78823984D01*
X57151297Y-78837893D01*
X57144186Y-78853556D01*
X57137947Y-78872158D01*
X57132525Y-78894886D01*
X57127862Y-78922927D01*
X57123901Y-78957467D01*
X57120585Y-78999692D01*
X57117859Y-79050789D01*
X57115664Y-79111944D01*
X57113945Y-79184344D01*
X57112644Y-79269175D01*
X57111705Y-79367622D01*
X57111070Y-79480874D01*
X57110684Y-79610116D01*
X57110488Y-79756534D01*
X57110427Y-79921316D01*
X57110443Y-80105647D01*
X57110480Y-80310713D01*
X57110489Y-80433333D01*
X57110465Y-80650282D01*
X57110431Y-80845842D01*
X57110443Y-81021199D01*
X57110558Y-81177541D01*
X57110830Y-81316057D01*
X57111318Y-81437934D01*
X57112076Y-81544360D01*
X57113162Y-81636522D01*
X57114631Y-81715609D01*
X57116540Y-81782808D01*
X57118944Y-81839307D01*
X57121901Y-81886293D01*
X57125466Y-81924955D01*
X57129695Y-81956480D01*
X57134646Y-81982055D01*
X57140373Y-82002870D01*
X57146933Y-82020111D01*
X57154383Y-82034965D01*
X57162779Y-82048622D01*
X57172176Y-82062269D01*
X57182632Y-82077093D01*
X57188723Y-82085983D01*
X57227496Y-82143600D01*
X56695932Y-82143600D01*
X56572683Y-82143565D01*
X56470187Y-82143415D01*
X56386620Y-82143078D01*
X56320156Y-82142486D01*
X56268971Y-82141567D01*
X56231241Y-82140251D01*
X56205140Y-82138469D01*
X56188844Y-82136151D01*
X56180528Y-82133226D01*
X56178368Y-82129624D01*
X56180539Y-82125275D01*
X56181735Y-82123845D01*
X56206885Y-82086773D01*
X56232783Y-82033972D01*
X56256392Y-81971970D01*
X56264661Y-81945557D01*
X56269278Y-81927616D01*
X56273179Y-81906555D01*
X56276448Y-81880289D01*
X56279166Y-81846732D01*
X56281415Y-81803799D01*
X56283277Y-81749404D01*
X56284836Y-81681462D01*
X56286172Y-81597888D01*
X56287369Y-81496595D01*
X56288508Y-81375500D01*
X56288885Y-81330800D01*
X56289902Y-81205649D01*
X56290660Y-81101282D01*
X56291103Y-81015907D01*
X56291170Y-80947733D01*
X56290805Y-80894965D01*
X56289948Y-80855814D01*
X56288541Y-80828485D01*
X56286525Y-80811186D01*
X56283843Y-80802126D01*
X56280436Y-80799512D01*
X56276244Y-80801551D01*
X56271771Y-80805867D01*
X56261416Y-80818802D01*
X56239358Y-80847876D01*
X56207157Y-80890959D01*
X56166374Y-80945918D01*
X56118570Y-81010623D01*
X56065305Y-81082942D01*
X56008140Y-81160744D01*
X55948637Y-81241898D01*
X55888355Y-81324272D01*
X55828855Y-81405736D01*
X55771698Y-81484157D01*
X55718445Y-81557404D01*
X55670657Y-81623347D01*
X55629893Y-81679854D01*
X55597716Y-81724793D01*
X55575685Y-81756034D01*
X55571117Y-81762666D01*
X55548196Y-81799569D01*
X55521388Y-81847559D01*
X55495989Y-81897097D01*
X55492768Y-81903777D01*
X55471090Y-81951972D01*
X55458504Y-81989534D01*
X55452774Y-82025360D01*
X55451656Y-82067400D01*
X55452290Y-82143600D01*
X54297851Y-82143600D01*
X54389015Y-82049869D01*
X54435812Y-81999975D01*
X54486099Y-81943495D01*
X54532144Y-81889226D01*
X54552569Y-81863873D01*
X54583007Y-81824328D01*
X54623062Y-81771116D01*
X54671561Y-81705867D01*
X54727335Y-81630211D01*
X54789211Y-81545777D01*
X54856019Y-81454194D01*
X54926587Y-81357092D01*
X54999745Y-81256101D01*
X55074321Y-81152850D01*
X55149144Y-81048968D01*
X55223043Y-80946085D01*
X55294846Y-80845831D01*
X55363384Y-80749836D01*
X55427484Y-80659727D01*
X55485975Y-80577136D01*
X55537686Y-80503692D01*
X55581447Y-80441024D01*
X55616085Y-80390761D01*
X55640430Y-80354534D01*
X55653311Y-80333971D01*
X55655069Y-80329868D01*
X55647110Y-80318542D01*
X55626315Y-80291362D01*
X55594047Y-80250029D01*
X55551670Y-80196244D01*
X55500547Y-80131706D01*
X55442041Y-80058118D01*
X55377514Y-79977178D01*
X55308331Y-79890588D01*
X55235853Y-79800048D01*
X55161446Y-79707260D01*
X55101717Y-79632902D01*
X54090711Y-79632902D01*
X54084802Y-79645859D01*
X54070472Y-79668108D01*
X54069425Y-79669591D01*
X54050638Y-79699744D01*
X54030991Y-79736575D01*
X54027092Y-79744711D01*
X54023556Y-79753140D01*
X54020430Y-79763259D01*
X54017686Y-79776460D01*
X54015292Y-79794138D01*
X54013219Y-79817684D01*
X54011435Y-79848493D01*
X54009912Y-79887957D01*
X54008619Y-79937469D01*
X54007526Y-79998423D01*
X54006603Y-80072211D01*
X54005819Y-80160228D01*
X54005145Y-80263865D01*
X54004550Y-80384516D01*
X54004005Y-80523574D01*
X54003479Y-80682432D01*
X54002945Y-80861289D01*
X54002406Y-81046407D01*
X54001972Y-81210345D01*
X54001709Y-81354503D01*
X54001684Y-81480279D01*
X54001965Y-81589071D01*
X54002619Y-81682277D01*
X54003714Y-81761297D01*
X54005318Y-81827528D01*
X54007497Y-81882370D01*
X54010319Y-81927221D01*
X54013851Y-81963478D01*
X54018161Y-81992541D01*
X54023317Y-82015809D01*
X54029385Y-82034679D01*
X54036433Y-82050551D01*
X54044529Y-82064822D01*
X54053740Y-82078891D01*
X54062240Y-82091358D01*
X54079376Y-82117652D01*
X54089522Y-82135237D01*
X54090711Y-82138457D01*
X54079804Y-82139534D01*
X54048611Y-82140535D01*
X53999423Y-82141435D01*
X53934533Y-82142210D01*
X53856230Y-82142837D01*
X53766807Y-82143291D01*
X53668556Y-82143549D01*
X53599645Y-82143600D01*
X53494652Y-82143380D01*
X53397810Y-82142748D01*
X53311307Y-82141749D01*
X53237332Y-82140427D01*
X53178074Y-82138826D01*
X53135720Y-82136991D01*
X53112460Y-82134965D01*
X53108578Y-82133693D01*
X53116276Y-82118791D01*
X53124274Y-82110760D01*
X53137446Y-82093634D01*
X53154685Y-82063383D01*
X53166607Y-82038822D01*
X53193245Y-81979911D01*
X53196320Y-80803045D01*
X53199395Y-79626178D01*
X53645053Y-79626178D01*
X53742870Y-79626342D01*
X53833264Y-79626811D01*
X53913830Y-79627547D01*
X53982162Y-79628516D01*
X54035856Y-79629680D01*
X54072505Y-79631003D01*
X54089704Y-79632449D01*
X54090711Y-79632902D01*
X55101717Y-79632902D01*
X55086470Y-79613922D01*
X55012290Y-79521737D01*
X54940269Y-79432404D01*
X54871769Y-79347624D01*
X54808155Y-79269098D01*
X54750788Y-79198526D01*
X54701033Y-79137609D01*
X54660252Y-79088047D01*
X54643088Y-79067378D01*
X54556796Y-78966716D01*
X54480197Y-78883459D01*
X54411383Y-78815638D01*
X54348448Y-78761289D01*
X54339067Y-78753922D01*
X54299556Y-78723317D01*
X55431316Y-78723067D01*
X55426027Y-78771044D01*
X55429330Y-78828388D01*
X55450861Y-78896663D01*
X55490835Y-78976412D01*
X55536143Y-79048695D01*
X55552361Y-79071340D01*
X55580414Y-79108896D01*
X55618630Y-79159221D01*
X55665337Y-79220173D01*
X55718861Y-79289611D01*
X55777531Y-79365394D01*
X55839675Y-79445380D01*
X55903621Y-79527428D01*
X55967695Y-79609396D01*
X56030227Y-79689143D01*
X56089543Y-79764527D01*
X56143971Y-79833407D01*
X56191839Y-79893642D01*
X56231475Y-79943089D01*
X56261206Y-79979608D01*
X56279361Y-80001058D01*
X56282420Y-80004356D01*
X56285279Y-79996349D01*
X56287493Y-79966055D01*
X56289057Y-79913756D01*
X56289967Y-79839731D01*
X56290220Y-79744263D01*
X56289813Y-79627634D01*
X56288904Y-79507645D01*
X56287582Y-79375533D01*
X56286057Y-79263794D01*
X56284081Y-79170225D01*
X56281406Y-79092619D01*
X56277782Y-79028774D01*
X56272961Y-78976483D01*
X56266694Y-78933544D01*
X56258732Y-78897751D01*
X56248827Y-78866900D01*
X56236731Y-78838786D01*
X56222193Y-78811205D01*
X56207511Y-78786166D01*
X56169514Y-78723067D01*
X57229397Y-78723067D01*
X57532234Y-78723067D01*
X57532201Y-78716817D01*
X57531395Y-78614744D01*
X57530370Y-78525833D01*
X57529100Y-78449141D01*
X57527560Y-78383727D01*
X57525724Y-78328649D01*
X57523567Y-78282965D01*
X57521063Y-78245734D01*
X57518187Y-78216013D01*
X57514913Y-78192862D01*
X57511215Y-78175339D01*
X57507069Y-78162501D01*
X57502447Y-78153408D01*
X57497326Y-78147118D01*
X57491678Y-78142688D01*
X57485479Y-78139178D01*
X57478704Y-78135645D01*
X57472708Y-78132076D01*
X57467475Y-78129500D01*
X57459299Y-78127172D01*
X57447086Y-78125078D01*
X57429741Y-78123207D01*
X57406169Y-78121547D01*
X57375277Y-78120084D01*
X57335968Y-78118808D01*
X57287150Y-78117704D01*
X57227727Y-78116761D01*
X57156604Y-78115967D01*
X57072688Y-78115309D01*
X56974883Y-78114775D01*
X56862094Y-78114353D01*
X56733229Y-78114029D01*
X56587191Y-78113792D01*
X56422886Y-78113630D01*
X56239220Y-78113530D01*
X56035097Y-78113480D01*
X55823953Y-78113467D01*
X54203600Y-78113467D01*
X54203600Y-78210254D01*
M02*
